<?xml version="1.0" encoding="utf-8"?>
<!-- Generator: Adobe Illustrator 16.0.0, SVG Export Plug-In . SVG Version: 6.00 Build 0)  -->
<!DOCTYPE svg PUBLIC "-//W3C//DTD SVG 1.1//EN" "http://www.w3.org/Graphics/SVG/1.1/DTD/svg11.dtd">
<svg version="1.1" id="Capa_1" xmlns="http://www.w3.org/2000/svg" xmlns:xlink="http://www.w3.org/1999/xlink" x="0px" y="0px"
	 width="60px" height="60px" viewBox="0 0 60 60" enable-background="new 0 0 60 60" xml:space="preserve">
<g>
	<g>
		<path fill="#FF7777" d="M59.358,46.959l-1.38-0.609c-0.055-0.193-0.112-0.379-0.175-0.56l0.769-1.325
			c0.178-0.307,0.18-0.682,0.008-0.99c-0.404-0.721-0.887-1.395-1.438-2.01c-0.241-0.272-0.612-0.391-0.968-0.308l-1.452,0.331
			c-0.143-0.111-0.289-0.219-0.438-0.324l-0.141-1.539c-0.033-0.355-0.252-0.667-0.576-0.816c-0.741-0.346-1.52-0.607-2.318-0.778
			c-0.356-0.075-0.727,0.05-0.963,0.326l-1.018,1.181h-0.488l-1.017-1.181c-0.235-0.278-0.606-0.403-0.962-0.326
			c-0.801,0.171-1.578,0.432-2.318,0.778c-0.324,0.149-0.544,0.461-0.576,0.816l-0.141,1.539c-0.15,0.105-0.297,0.213-0.439,0.324
			l-1.453-0.331c-0.354-0.083-0.725,0.036-0.967,0.308c-0.552,0.615-1.034,1.289-1.438,2.011c-0.172,0.308-0.17,0.684,0.008,0.989
			l0.768,1.324c-0.063,0.18-0.121,0.367-0.174,0.561l-1.381,0.609c-0.363,0.158-0.597,0.518-0.596,0.914v2.263
			c-0.001,0.396,0.232,0.755,0.596,0.915l1.381,0.608c0.053,0.193,0.111,0.379,0.174,0.56l-0.77,1.326
			c-0.176,0.305-0.18,0.681-0.008,0.989c0.405,0.721,0.888,1.395,1.439,2.01c0.242,0.272,0.613,0.39,0.969,0.308l1.45-0.333
			c0.143,0.112,0.29,0.221,0.44,0.325l0.141,1.541c0.031,0.355,0.252,0.666,0.576,0.815c0.74,0.347,1.518,0.606,2.318,0.778
			c0.355,0.075,0.725-0.05,0.962-0.326l1.017-1.182h0.488l1.018,1.182C50.475,59.873,50.752,60,51.043,60
			c0.068,0,0.137-0.008,0.205-0.021c0.799-0.172,1.577-0.432,2.318-0.778c0.324-0.149,0.543-0.46,0.576-0.815l0.14-1.541
			c0.15-0.104,0.297-0.213,0.439-0.324l1.452,0.332c0.355,0.082,0.727-0.035,0.968-0.308c0.552-0.615,1.034-1.289,1.438-2.01
			c0.172-0.309,0.17-0.685-0.008-0.989l-0.77-1.326c0.063-0.181,0.121-0.366,0.176-0.56l1.38-0.608
			c0.362-0.16,0.597-0.52,0.597-0.915v-2.263C59.955,47.477,59.721,47.117,59.358,46.959z M56.725,50.027
			c-0.289,0.127-0.502,0.385-0.57,0.693c-0.092,0.412-0.218,0.814-0.377,1.205c-0.119,0.288-0.098,0.615,0.059,0.886l0.711,1.226
			c-0.16,0.25-0.334,0.494-0.521,0.73l-1.339-0.307c-0.313-0.073-0.644,0.011-0.884,0.225c-0.311,0.273-0.645,0.52-0.997,0.736
			c-0.268,0.166-0.442,0.447-0.471,0.76l-0.13,1.428c-0.268,0.105-0.537,0.197-0.807,0.273l-0.915-1.063
			c-0.19-0.22-0.466-0.347-0.757-0.347h-1.404c-0.291,0-0.567,0.127-0.758,0.347l-0.915,1.063c-0.269-0.076-0.538-0.168-0.807-0.273
			l-0.13-1.428c-0.028-0.313-0.203-0.594-0.471-0.76c-0.352-0.217-0.686-0.463-0.996-0.736c-0.242-0.213-0.571-0.297-0.886-0.226
			l-1.338,0.307c-0.187-0.235-0.36-0.479-0.521-0.729l0.712-1.226c0.156-0.271,0.178-0.597,0.059-0.886
			c-0.16-0.391-0.285-0.793-0.377-1.205c-0.07-0.309-0.281-0.566-0.571-0.693l-1.231-0.543v-0.961l1.231-0.542
			c0.29-0.128,0.501-0.385,0.571-0.693c0.092-0.412,0.217-0.816,0.377-1.208c0.119-0.287,0.098-0.614-0.059-0.884l-0.711-1.226
			c0.16-0.25,0.334-0.494,0.52-0.729l1.34,0.306c0.313,0.072,0.643-0.011,0.883-0.225c0.313-0.272,0.646-0.52,0.998-0.736
			c0.268-0.165,0.441-0.446,0.471-0.76l0.13-1.427c0.269-0.105,0.538-0.197,0.806-0.273l0.916,1.063
			c0.189,0.221,0.467,0.348,0.758,0.348h1.404c0.291,0,0.566-0.127,0.757-0.348l0.915-1.063c0.27,0.076,0.539,0.168,0.807,0.273
			l0.13,1.427c0.028,0.313,0.203,0.595,0.471,0.76c0.353,0.217,0.687,0.464,0.997,0.736c0.241,0.214,0.57,0.297,0.884,0.225
			l1.339-0.306c0.188,0.235,0.361,0.479,0.521,0.729l-0.711,1.227c-0.156,0.27-0.178,0.598-0.059,0.885
			c0.159,0.391,0.285,0.795,0.377,1.206c0.069,0.309,0.281,0.565,0.57,0.693l1.231,0.542v0.961L56.725,50.027z"/>
	</g>
</g>
<g>
	<g>
		<path fill="#FF7777" d="M49.023,44.006c-2.76,0-4.997,2.238-4.997,4.998c0,2.761,2.237,4.998,4.997,4.998
			c2.761,0,4.998-2.237,4.998-4.998C54.019,46.246,51.783,44.01,49.023,44.006z M49.023,52.003c-1.656,0-2.998-1.343-2.998-2.999
			s1.342-2.998,2.998-2.998s3,1.342,3,2.998C52.021,50.66,50.68,52.002,49.023,52.003z"/>
	</g>
</g>
<g>
	<g>
		<path fill="#FF7777" d="M28.033,4.023c-8.281,0-14.994,6.713-14.994,14.994c0.009,8.277,6.716,14.985,14.994,14.994
			c8.28,0,14.993-6.713,14.993-14.994S36.313,4.023,28.033,4.023z M15.579,22.722c-2.047-6.877,1.868-14.112,8.745-16.159
			c1.204-0.358,2.453-0.54,3.709-0.54c1.254,0.001,2.502,0.185,3.703,0.545c-0.244,0.161-0.498,0.317-0.723,0.487
			c-0.342,0.258-0.482,0.705-0.35,1.111l0.459,1.397c-0.188,0.178-0.373,0.362-0.55,0.551l-1.396-0.459
			c-0.406-0.131-0.851,0.008-1.11,0.348c-0.739,0.97-1.356,2.026-1.838,3.146c-0.168,0.394-0.066,0.851,0.253,1.136l1.112,0.996
			c-0.076,0.249-0.144,0.5-0.203,0.751l-1.449,0.305c-0.462,0.097-0.793,0.505-0.793,0.978v3.409c0,0.473,0.331,0.88,0.793,0.978
			l1.449,0.305c0.06,0.251,0.127,0.501,0.202,0.75l-1.111,0.996c-0.319,0.286-0.421,0.743-0.253,1.136
			c0.482,1.119,1.099,2.175,1.836,3.146c0.258,0.342,0.704,0.482,1.111,0.348l1.396-0.458c0.178,0.188,0.363,0.373,0.551,0.55
			l-0.459,1.396c-0.133,0.406,0.007,0.853,0.348,1.11c0.227,0.17,0.48,0.326,0.726,0.488C24.86,33.514,17.626,29.599,15.579,22.722z
			 M34.056,30.521c-0.433-0.222-0.854-0.465-1.261-0.73l0.432-1.316c0.127-0.387,0.008-0.813-0.303-1.076
			c-0.461-0.39-0.89-0.818-1.28-1.279c-0.264-0.309-0.688-0.429-1.075-0.303l-1.319,0.435c-0.328-0.481-0.623-0.984-0.883-1.505
			l1.048-0.94c0.304-0.271,0.412-0.7,0.274-1.083c-0.205-0.566-0.362-1.148-0.47-1.74c-0.072-0.4-0.38-0.717-0.778-0.801
			l-1.293-0.272v-1.786l1.293-0.272c0.398-0.083,0.706-0.4,0.778-0.8c0.108-0.593,0.265-1.176,0.47-1.743
			c0.138-0.383,0.029-0.811-0.274-1.083l-1.048-0.939c0.261-0.521,0.556-1.023,0.883-1.505l1.321,0.434
			c0.387,0.126,0.811,0.006,1.075-0.304c0.39-0.461,0.817-0.889,1.278-1.279c0.311-0.264,0.43-0.688,0.303-1.075l-0.432-1.315
			c0.406-0.265,0.828-0.508,1.26-0.729c1.367,0.722,2.595,1.68,3.627,2.831c-4.791,1.288-7.63,6.215-6.342,11.005
			c0.831,3.094,3.248,5.51,6.342,6.342C36.65,28.841,35.422,29.799,34.056,30.521z M33.102,18.023
			c0.441-3.066,2.851-5.475,5.916-5.916c2.68,4.217,2.68,9.603,0,13.82C35.201,25.378,32.553,21.839,33.102,18.023z"/>
	</g>
</g>
<g>
	<g>
		<path fill="#FF7777" d="M54.366,17.084l-1.198-0.529c-0.041-0.143-0.084-0.284-0.131-0.421l0.668-1.153
			c0.178-0.306,0.18-0.681,0.008-0.989c-0.367-0.655-0.805-1.268-1.306-1.827c-0.242-0.272-0.614-0.391-0.97-0.309l-1.259,0.288
			c-0.106-0.082-0.215-0.162-0.325-0.239l-0.123-1.34c-0.033-0.354-0.252-0.665-0.574-0.815c-0.674-0.315-1.381-0.553-2.107-0.708
			c-0.346-0.073-0.703,0.042-0.94,0.302l-1.104,1.199C40.349,1.158,28.965-2.676,19.58,1.981
			c-9.386,4.656-13.219,16.04-8.563,25.425c0.278,0.561,0.584,1.108,0.917,1.638L9.26,32.387c-0.17,0.213-0.246,0.486-0.21,0.758
			c0.036,0.271,0.182,0.515,0.403,0.675l2.171,1.579L0.269,49.373c-0.349,0.43-0.282,1.061,0.147,1.408
			c0.001,0.002,0.002,0.002,0.003,0.004l4.998,3.998c0.429,0.342,1.054,0.275,1.401-0.15l11.608-14.287l2.021,1.471
			c0.432,0.314,1.035,0.232,1.369-0.184l3.119-3.899c8.227,1.426,16.405-2.751,20.073-10.251l1.093,1.203
			c0.19,0.208,0.459,0.327,0.74,0.327c0.069,0,0.139-0.007,0.205-0.021c0.729-0.155,1.436-0.393,2.109-0.708
			c0.322-0.15,0.541-0.461,0.574-0.815l0.123-1.34c0.11-0.078,0.219-0.158,0.324-0.239l1.26,0.288
			c0.355,0.083,0.729-0.035,0.97-0.308c0.501-0.559,0.938-1.171,1.306-1.826c0.172-0.308,0.17-0.684-0.008-0.99L53.037,21.9
			c0.047-0.138,0.09-0.278,0.131-0.422l1.198-0.529c0.362-0.16,0.597-0.519,0.597-0.915v-2.036
			C54.963,17.603,54.729,17.244,54.366,17.084z M5.892,52.603l-3.437-2.75l10.788-13.276l3.564,2.592L5.892,52.603z M20.852,39.639
			l-2.016-1.467l-0.114-0.082l-7.247-5.271l1.654-2.067c2.455,3.118,5.823,5.39,9.633,6.499L20.852,39.639z M28.033,36.01
			c-9.385,0-16.993-7.608-16.993-16.993c0.011-9.38,7.612-16.982,16.993-16.993c9.385,0,16.992,7.608,16.992,16.993
			S37.418,36.01,28.033,36.01z M52.964,19.384l-1.048,0.461c-0.289,0.127-0.502,0.385-0.57,0.693
			c-0.082,0.366-0.193,0.724-0.334,1.072c-0.119,0.288-0.098,0.614,0.059,0.883l0.609,1.05c-0.123,0.187-0.253,0.369-0.393,0.547
			l-1.142-0.261c-0.313-0.074-0.644,0.01-0.884,0.223c-0.277,0.243-0.574,0.462-0.887,0.656c-0.266,0.165-0.439,0.445-0.469,0.757
			l-0.112,1.223c-0.204,0.079-0.409,0.148-0.614,0.208l-1.305-1.437c1.535-4.166,1.533-8.743-0.006-12.906l1.309-1.421
			c0.205,0.06,0.412,0.13,0.616,0.209l0.112,1.223c0.029,0.313,0.203,0.593,0.47,0.759c0.313,0.193,0.609,0.412,0.886,0.655
			c0.24,0.213,0.57,0.297,0.884,0.224l1.142-0.262c0.139,0.179,0.27,0.361,0.393,0.548l-0.609,1.05
			c-0.156,0.269-0.178,0.596-0.059,0.883c0.141,0.347,0.252,0.706,0.334,1.072c0.069,0.309,0.281,0.566,0.57,0.693l1.048,0.462
			V19.384L52.964,19.384z"/>
	</g>
</g>
</svg>
