<?xml version="1.0" encoding="utf-8"?>
<!-- Generator: Adobe Illustrator 16.0.0, SVG Export Plug-In . SVG Version: 6.00 Build 0)  -->
<!DOCTYPE svg PUBLIC "-//W3C//DTD SVG 1.1//EN" "http://www.w3.org/Graphics/SVG/1.1/DTD/svg11.dtd">
<svg version="1.1" id="Layer_1" xmlns="http://www.w3.org/2000/svg" xmlns:xlink="http://www.w3.org/1999/xlink" x="0px" y="0px"
	 width="512px" height="512px" viewBox="0 0 512 512" enable-background="new 0 0 512 512" xml:space="preserve">
<path fill="#FF7777" d="M494.5,129.875h-80.117l47.84-53.258c2.656-2.961,4.004-6.773,3.793-10.742
	c-0.215-3.973-1.961-7.621-4.918-10.277l-20.574-18.477c-6.105-5.484-15.535-4.98-21.016,1.125l-82.309,91.629h-143.25
	c-4.141,0-7.5,3.355-7.5,7.5s3.359,7.5,7.5,7.5h129.777l-33.461,37.25c-2.656,2.957-4,6.773-3.789,10.742
	c0.027,0.469,0.074,0.93,0.141,1.391l-11.5,31.098c-1.707,4.617-0.445,9.727,3.219,13.016c2.246,2.02,5.082,3.066,7.953,3.066
	c1.805,0,3.625-0.414,5.328-1.258l29.715-14.773c0.188,0.008,0.371,0.027,0.563,0.027c0.27,0,0.539-0.008,0.813-0.023
	c3.969-0.215,7.617-1.957,10.277-4.918l67.926-75.617h93.59c1.379,0,2.5,1.121,2.5,2.5v288.961c0,1.379-1.121,2.5-2.5,2.5h-54.563
	c-4.141,0-7.5,3.355-7.5,7.5c0,4.141,3.359,7.5,7.5,7.5H494.5c9.648,0,17.5-7.852,17.5-17.5V147.375
	C512,137.723,504.148,129.875,494.5,129.875z M450.988,66.68l-8.91,9.914l-20.398-18.32l8.91-9.918L450.988,66.68z M411.656,69.434
	l4.621,4.148L306.125,196.211l-4.621-4.152L411.656,69.434z M297.348,208.488l8.664,7.785l-14.141,7.027L297.348,208.488z
	 M321.902,210.383l-4.621-4.148L427.438,83.605l4.617,4.148L321.902,210.383z"/>
<path fill="#FF7777" d="M407.277,438.836H69.945C39.648,438.836,15,414.188,15,383.891v-3.965c0-30.297,24.645-54.941,54.941-54.941
	h15.414c9.652,0,17.5-7.852,17.5-17.5V144.875h58.434c4.145,0,7.5-3.359,7.5-7.5c0-4.145-3.355-7.5-7.5-7.5h-58.434v-26.043
	c0-4.141-3.355-7.5-7.5-7.5c-4.141,0-7.5,3.359-7.5,7.5v203.652c0,1.379-1.121,2.5-2.5,2.5H69.941
	c-22.258,0-42.125,10.453-54.941,26.707V70.945C15,40.648,39.648,16,69.945,16h15.41c1.379,0,2.5,1.121,2.5,2.5v52.672
	c0,4.145,3.359,7.5,7.5,7.5c4.145,0,7.5-3.355,7.5-7.5V18.5c0-9.648-7.848-17.5-17.5-17.5h-15.41C31.379,1,0,32.375,0,70.945
	v312.945c0,38.566,31.379,69.945,69.945,69.945h337.332c4.145,0,7.5-3.359,7.5-7.5C414.777,442.191,411.422,438.836,407.277,438.836
	z"/>
<path fill="#FF7777" d="M400.195,209.055c-30.637,0-55.758,24.016-57.555,54.207h-34.527c-4.141,0-7.5,3.359-7.5,7.5v85.672
	c0,4.145,3.359,7.5,7.5,7.5h85.672c4.145,0,7.5-3.355,7.5-7.5v-32.063c31.301-0.586,56.582-26.211,56.582-57.645
	C457.867,234.926,431.996,209.055,400.195,209.055z M386.289,307.059c-13.137-4.543-23.379-15.328-27.164-28.797h27.164V307.059z
	 M315.613,348.934v-70.672h28.074c4.438,21.766,21.172,39.102,42.602,44.43v26.242H315.613z M401.289,309.371v-38.609
	c0-4.141-3.359-7.5-7.5-7.5H357.68c1.77-21.914,20.156-39.207,42.52-39.207c23.527,0,42.672,19.141,42.672,42.672
	C442.867,289.891,424.313,308.789,401.289,309.371z"/>
<path fill="#FF7777" d="M428.059,329.578c-4.145,0-7.5,3.355-7.5,7.5c0,4.141,3.355,7.5,7.5,7.5h16.684c4.145,0,7.5-3.359,7.5-7.5
	c0-4.145-3.355-7.5-7.5-7.5H428.059z"/>
<path fill="#FF7777" d="M452.242,356.434c0-4.141-3.355-7.5-7.5-7.5h-16.684c-4.145,0-7.5,3.359-7.5,7.5c0,4.145,3.355,7.5,7.5,7.5
	h16.684C448.887,363.934,452.242,360.578,452.242,356.434z"/>
<path fill="#FF7777" d="M137,206.066h12c4.141,0,7.5-3.355,7.5-7.5c0-4.141-3.359-7.5-7.5-7.5h-12c-4.141,0-7.5,3.359-7.5,7.5
	C129.5,202.711,132.859,206.066,137,206.066z"/>
<path fill="#FF7777" d="M137,227.918h57.895c4.145,0,7.5-3.359,7.5-7.5c0-4.145-3.355-7.5-7.5-7.5H137c-4.141,0-7.5,3.355-7.5,7.5
	C129.5,224.559,132.859,227.918,137,227.918z"/>
<path fill="#FF7777" d="M182.895,206.066h12c4.145,0,7.5-3.355,7.5-7.5c0-4.141-3.355-7.5-7.5-7.5h-12c-4.141,0-7.5,3.359-7.5,7.5
	C175.395,202.711,178.754,206.066,182.895,206.066z"/>
<path fill="#FF7777" d="M240.789,191.066h-12c-4.141,0-7.5,3.359-7.5,7.5c0,4.145,3.359,7.5,7.5,7.5h12c4.145,0,7.5-3.355,7.5-7.5
	C248.289,194.426,244.934,191.066,240.789,191.066z"/>
<path fill="#FF7777" d="M137,249.605h57.895c4.145,0,7.5-3.359,7.5-7.5c0-4.145-3.355-7.5-7.5-7.5H137c-4.141,0-7.5,3.355-7.5,7.5
	C129.5,246.246,132.859,249.605,137,249.605z"/>
<path fill="#FF7777" d="M129.5,263.789c0,4.145,3.359,7.5,7.5,7.5h91.789c4.145,0,7.5-3.355,7.5-7.5c0-4.141-3.355-7.5-7.5-7.5H137
	C132.859,256.289,129.5,259.648,129.5,263.789z"/>
<path fill="#FF7777" d="M248.289,285.477c0-4.141-3.355-7.5-7.5-7.5H137c-4.141,0-7.5,3.359-7.5,7.5c0,4.145,3.359,7.5,7.5,7.5
	h103.789C244.934,292.977,248.289,289.621,248.289,285.477z"/>
<path fill="#FF7777" d="M165.168,320.418c0-4.145-3.359-7.5-7.5-7.5H137c-4.141,0-7.5,3.355-7.5,7.5v20.664
	c0,4.145,3.359,7.5,7.5,7.5h20.668c4.141,0,7.5-3.355,7.5-7.5V320.418z M150.168,333.586H144.5v-5.668h5.668V333.586z"/>
<path fill="#FF7777" d="M214.754,320.418c0-4.145-3.359-7.5-7.5-7.5h-20.668c-4.141,0-7.5,3.355-7.5,7.5v20.664
	c0,4.145,3.359,7.5,7.5,7.5h20.668c4.141,0,7.5-3.355,7.5-7.5V320.418z M199.754,333.586h-5.668v-5.668h5.668V333.586z"/>
<path fill="#FF7777" d="M264.344,320.418c0-4.145-3.359-7.5-7.5-7.5h-20.668c-4.145,0-7.5,3.355-7.5,7.5v20.664
	c0,4.145,3.355,7.5,7.5,7.5h20.668c4.141,0,7.5-3.355,7.5-7.5V320.418z M249.344,333.586h-5.668v-5.668h5.668V333.586z"/>
<path fill="#FF7777" d="M157.668,365.586H137c-4.141,0-7.5,3.355-7.5,7.5v20.664c0,4.145,3.359,7.5,7.5,7.5h20.668
	c4.141,0,7.5-3.355,7.5-7.5v-20.664C165.168,368.941,161.809,365.586,157.668,365.586z M150.168,386.25H144.5v-5.668h5.668V386.25z"
	/>
<path fill="#FF7777" d="M207.254,365.586h-20.668c-4.141,0-7.5,3.355-7.5,7.5v20.664c0,4.145,3.359,7.5,7.5,7.5h20.668
	c4.141,0,7.5-3.355,7.5-7.5v-20.664C214.754,368.941,211.395,365.586,207.254,365.586z M199.754,386.25h-5.668v-5.668h5.668V386.25z
	"/>
<path fill="#FF7777" d="M236.176,401.25h20.668c4.141,0,7.5-3.355,7.5-7.5v-20.668c0-4.141-3.359-7.5-7.5-7.5h-20.668
	c-4.145,0-7.5,3.359-7.5,7.5v20.668C228.676,397.895,232.031,401.25,236.176,401.25z M243.676,380.586h5.668v5.664h-5.668V380.586z"
	/>
</svg>
