<svg width="159" height="159" viewBox="0 0 159 159" fill="none" xmlns="http://www.w3.org/2000/svg">
<g clip-path="url(#clip0)">
<path d="M55.6732 34.4268C33.7199 34.4142 15.9129 52.2003 15.9 74.1536C15.8907 89.9675 25.2565 104.283 39.75 110.608V129.85C39.75 134.241 43.3093 137.8 47.7 137.8V140.45C47.7 144.841 51.2593 148.4 55.65 148.4C60.0407 148.4 63.6 144.841 63.6 140.45V137.8C67.9907 137.8 71.55 134.241 71.55 129.85V110.608C86.0203 104.28 95.3791 89.9937 95.4 74.2C95.4129 52.2467 77.6264 34.4397 55.6732 34.4268ZM58.3 140.45C58.3 141.913 57.1134 143.1 55.65 143.1C54.1865 143.1 53 141.913 53 140.45V137.8H58.3V140.45ZM63.6 132.5H47.7C46.2365 132.5 45.05 131.313 45.05 129.85H66.25C66.25 131.313 65.0634 132.5 63.6 132.5ZM66.25 124.55H45.05V121.9H66.25V124.55ZM66.25 116.6H45.05V112.471C51.9791 114.443 59.3209 114.443 66.25 112.471V116.6ZM64.9488 107.338L68.8735 79.8763L63.6265 79.1237L59.4421 108.43C56.9226 108.723 54.3773 108.723 51.8578 108.43L47.6735 79.1237L42.4265 79.8763L46.3511 107.338C31.4975 103.163 21.2255 89.6289 21.2 74.2C21.1818 55.1736 36.5908 39.7351 55.6168 39.7169C74.6432 39.6986 90.0818 55.1077 90.1 74.1337C90.1149 89.5912 79.8322 103.166 64.9488 107.338Z" fill="#5C5C5C" fill-opacity="0.78"/>
<path d="M158.224 45.8264L123.774 11.3765C123.277 10.8796 122.603 10.6 121.9 10.6V2.65C121.9 1.18654 120.713 0 119.25 0H29.15V0.02385C28.4501 0.0139125 27.775 0.284875 27.2764 0.77645L0.77645 27.2765C0.288187 27.7773 0.0175562 28.4507 0.02385 29.15H0V156.35C0 157.813 1.18654 159 2.65 159H119.25C120.713 159 121.9 157.813 121.9 156.35V69.9971L127.976 76.0736C129.011 77.108 130.689 77.108 131.724 76.0736L158.224 49.5736C159.258 48.5387 159.258 46.8613 158.224 45.8264ZM111.3 5.3H116.6V10.6H111.3V5.3ZM26.5 9.0471V26.5H9.0471L26.5 9.0471ZM106 153.7H5.3V31.8H29.15C30.6135 31.8 31.8 30.6135 31.8 29.15V5.3H106V10.6H95.4C93.9365 10.6 92.75 11.7865 92.75 13.25V39.75C92.75 40.4529 93.0296 41.1267 93.5264 41.6236L106 54.0971V153.7ZM116.6 153.7H111.3V59.3971L116.6 64.6971V153.7ZM129.85 70.4529L98.05 38.6529V15.9H120.803L152.603 47.7L129.85 70.4529Z" fill="#5C5C5C" fill-opacity="0.78"/>
<path d="M67.4345 66.5415C66.6888 66.1688 65.811 66.1688 65.0654 66.5415L55.6499 71.2373L46.2345 66.5282C45.4888 66.1556 44.611 66.1556 43.8654 66.5282L33.2654 71.8282L35.6345 76.5717L45.0499 71.8627L54.4654 76.585C55.211 76.9576 56.0888 76.9576 56.8345 76.585L66.2499 71.8627L75.6654 76.585L78.0345 71.8415L67.4345 66.5415Z" fill="#5C5C5C" fill-opacity="0.78"/>
<path d="M111.3 21.2C106.909 21.2 103.35 24.7593 103.35 29.15C103.35 33.5407 106.909 37.1 111.3 37.1C115.691 37.1 119.25 33.5407 119.25 29.15C119.25 24.7593 115.691 21.2 111.3 21.2ZM111.3 31.8C109.837 31.8 108.65 30.6135 108.65 29.15C108.65 27.6865 109.837 26.5 111.3 26.5C112.763 26.5 113.95 27.6865 113.95 29.15C113.95 30.6135 112.763 31.8 111.3 31.8Z" fill="#5C5C5C" fill-opacity="0.78"/>
<path d="M87.45 26.5H66.25V31.8H87.45V26.5Z" fill="#5C5C5C" fill-opacity="0.78"/>
<path d="M87.45 15.9H79.5V21.2H87.45V15.9Z" fill="#5C5C5C" fill-opacity="0.78"/>
<path d="M74.2 15.9H53V21.2H74.2V15.9Z" fill="#5C5C5C" fill-opacity="0.78"/>
<path d="M138.572 43.1786L125.324 56.4265L129.072 60.1741L142.32 46.9262L138.572 43.1786Z" fill="#5C5C5C" fill-opacity="0.78"/>
<path d="M158.388 91.1202L158.42 91.0937L147.82 77.8437C146.824 76.7006 145.089 76.5817 143.946 77.5781C143.852 77.6606 143.763 77.7493 143.681 77.8437L133.081 91.0937L133.113 91.1202C132.727 91.577 132.511 92.1524 132.5 92.75V153.7C132.5 156.627 134.873 159 137.8 159H153.7C156.628 159 159 156.627 159 153.7V92.75C158.989 92.1524 158.773 91.5767 158.388 91.1202ZM145.75 83.74L150.838 90.1H140.662L145.75 83.74ZM153.7 153.7H137.8V95.4H153.7V153.7Z" fill="#5C5C5C" fill-opacity="0.78"/>
<path d="M100.7 113.95H79.5V119.25H100.7V113.95Z" fill="#5C5C5C" fill-opacity="0.78"/>
<path d="M100.7 124.55H79.5V129.85H100.7V124.55Z" fill="#5C5C5C" fill-opacity="0.78"/>
<path d="M100.7 135.15H79.5V140.45H100.7V135.15Z" fill="#5C5C5C" fill-opacity="0.78"/>
</g>
<defs>
<clipPath id="clip0">
<rect width="159" height="159" fill="white"/>
</clipPath>
</defs>
</svg>
