<svg width="117" height="117" viewBox="0 0 117 117" fill="none" xmlns="http://www.w3.org/2000/svg">
<g clip-path="url(#clip0)">
<path d="M106.114 29.9542C98.1209 12.7675 81.3598 1.3367 62.4414 0.171252L60.5608 0L58.842 0.0427149C53.0042 0.257465 47.2831 1.73642 42.0743 4.38161C28.226 11.305 19.4973 25.4797 19.5486 40.9621V48.2217L8.12921 67.2545C7.76673 67.8557 7.75693 68.6065 8.10296 69.2178C8.44977 69.8292 9.09833 70.2069 9.80097 70.2069H22.0045L20.8214 87.7824C19.9189 92.9811 23.3451 97.945 28.527 98.9467C28.6547 98.9717 28.7864 98.9855 28.9161 98.9855C28.9859 98.9855 29.0568 98.9815 29.1246 98.9745L40.995 97.6868V115.05C40.995 116.127 41.8677 117 42.945 117H89.7375C90.8143 117 91.6871 116.127 91.6871 115.05V95.6745L106.921 58.0308C110.269 48.9153 109.979 38.862 106.114 29.9542V29.9542ZM103.278 56.6432L87.9289 94.578C87.8223 94.8562 87.7828 95.154 87.8106 95.4507C87.8106 95.4915 87.7875 95.5271 87.7875 95.5679V113.1H44.8946V95.553C44.8946 95.5126 44.8727 95.4766 44.8711 95.4362C44.8691 95.3954 44.888 95.3504 44.8821 95.3065C44.8597 95.1948 44.8237 95.0866 44.7794 94.9824C44.7582 94.8966 44.7304 94.8131 44.6979 94.7308C44.6191 94.5651 44.5176 94.4103 44.3942 94.2731C44.3742 94.237 44.3523 94.2026 44.3291 94.1689C44.3076 94.1516 44.2845 94.1359 44.2625 94.1171C43.8585 93.7198 43.2997 93.5223 42.7354 93.5771L29.0145 95.062C25.988 94.2986 24.0889 91.3003 24.6912 88.2378L26.037 68.3914C26.1126 67.3164 25.3022 66.3834 24.2276 66.3077C24.0811 66.3077 13.2511 66.3077 13.2511 66.3077L23.1743 49.759C23.1927 49.719 23.2072 49.6779 23.2193 49.6352C23.2762 49.5172 23.3197 49.3934 23.3502 49.2672C23.3886 49.1395 23.4153 49.0082 23.4278 48.8761C23.4278 48.8314 23.4545 48.7922 23.4545 48.746V40.9621C23.4012 26.9496 31.2929 14.1163 43.8236 7.84153C48.5281 5.45262 53.6951 4.11474 58.9662 3.91841H60.5259C78.6296 4.42942 94.8973 15.1129 102.557 31.5244C106.008 39.4953 106.267 48.4881 103.278 56.6432V56.6432Z" fill="#5C5C5C" fill-opacity="0.78"/>
<path d="M62.4415 20.1266C55.2669 14.0313 44.5608 14.6834 38.1802 21.6036C31.798 28.525 32.0155 39.2476 38.6708 45.9045L60.727 67.9658C61.1769 68.4149 61.816 68.6163 62.4415 68.5081C62.552 68.5273 62.6641 68.5371 62.7769 68.5371C63.2938 68.5371 63.7892 68.331 64.1556 67.9658L86.2118 45.9045C92.8671 39.2476 93.0849 28.525 86.7028 21.6036C80.321 14.6834 69.6145 14.0313 62.4415 20.1266V20.1266ZM83.4553 43.148L62.4415 64.1641L41.4273 43.148C36.0969 37.8184 36.0969 29.177 41.4273 23.8463C46.7573 18.5167 55.3998 18.5167 60.729 23.8463L61.0652 24.1817C61.8258 24.9432 63.0607 24.9432 63.8225 24.1817L64.1571 23.8463C69.4871 18.5167 78.1284 18.5167 83.4588 23.8463C88.7884 29.177 88.7884 37.8184 83.4588 43.148H83.4553Z" fill="#5C5C5C" fill-opacity="0.78"/>
<path d="M51.0787 21.8015C46.3475 21.8015 42.0822 24.6505 40.2714 29.0223C38.4609 33.3937 39.4617 38.4247 42.806 41.7694C43.571 42.5077 44.787 42.4979 45.5394 41.7462C46.2907 40.9934 46.302 39.7782 45.5633 39.0125C43.3331 36.7823 42.6661 33.4286 43.8731 30.5142C45.0813 27.5997 47.9248 25.6999 51.0787 25.7007C52.1552 25.7007 53.0283 24.8276 53.0283 23.7507C53.0283 22.675 52.1552 21.8015 51.0787 21.8015V21.8015Z" fill="#5C5C5C" fill-opacity="0.78"/>
</g>
<defs>
<clipPath id="clip0">
<rect width="117" height="117" fill="white"/>
</clipPath>
</defs>
</svg>
