<?xml version="1.0" encoding="utf-8"?>
<!-- Generator: Adobe Illustrator 16.0.0, SVG Export Plug-In . SVG Version: 6.00 Build 0)  -->
<!DOCTYPE svg PUBLIC "-//W3C//DTD SVG 1.1//EN" "http://www.w3.org/Graphics/SVG/1.1/DTD/svg11.dtd">
<svg version="1.1" xmlns="http://www.w3.org/2000/svg" xmlns:xlink="http://www.w3.org/1999/xlink" x="0px" y="0px" width="329px"
	 height="362px" viewBox="0 0 329 362" enable-background="new 0 0 329 362" xml:space="preserve">
<g id="Layer_1">
	<title>face</title>
	<desc>Created with Sketch.</desc>
	<g id="Page-1">
		<g>
			<g>
				<path fill-rule="evenodd" clip-rule="evenodd" fill="none" d="M0.352,181.072c0-59.694,0.007-119.389-0.043-179.084
					C0.307,0.494,0.697,0.317,2.054,0.317c108.435,0.037,216.869,0.038,325.304-0.003c1.406,0,1.719,0.253,1.719,1.698
					c-0.044,119.331-0.045,238.661,0.005,357.992c0.001,1.575-0.435,1.757-1.835,1.757c-108.435-0.035-216.869-0.035-325.304-0.001
					c-1.295,0-1.626-0.263-1.625-1.604C0.357,300.461,0.352,240.767,0.352,181.072z M275.001,271.289
					c-0.337,0.554-0.667,1.022-0.918,1.53c-0.294,0.591-0.516,1.277,0.029,1.8c0.595,0.568,1.313,0.365,1.947-0.025
					c0.295-0.183,0.578-0.413,0.801-0.677c0.513-0.611,0.954-0.907,1.725-0.255c0.847,0.718,1.872,0.573,2.818,0.104
					c2.441-1.211,4.224-2.927,4.432-5.85c0.049-0.696,0.073-1.447,0.351-2.065c1.197-2.666,1.31-5.432,0.941-8.26
					c-0.069-0.53-0.153-1.02,0.773-1.273c-0.618,1.902-0.471,3.401,1.478,4.163c0.128,0.05,0.188,0.28,0.271,0.431
					c0.84,1.503,2.097,1.659,2.716,0.128c0.713-1.762,1.707-3.25,2.85-4.716c0.536-0.688,0.706-1.64,0.644-2.513
					c-0.088-1.215,0.455-1.95,1.392-2.608c1.514-1.063,2.486-2.546,2.505-4.422c0.021-2.155,0.144-4.325-0.438-6.46
					c-0.227-0.829-0.722-2.196,0.533-2.344c1.45-0.171,0.634,1.286,0.763,2c0.162,0.894,0.391,1.668,1.396,1.718
					c1.006,0.05,1.43-0.729,1.568-1.584c0.179-1.094,0.287-2.205,0.34-3.313c0.029-0.622,0.021-1.082,0.779-1.334
					c1.853-0.619,2.135-2.188,2.009-3.849c-0.112-1.493-0.775-2.777-1.698-3.978c-1.114-1.449-0.786-2.281,0.939-2.651
					c0.662-0.143,1.197-0.434,1.654-0.919c0.229-0.243,0.443-0.624,0.861-0.407c0.42,0.219,0.468,0.646,0.428,1.07
					c-0.056,0.596-0.235,1.129-0.682,1.573c-0.618,0.613-1.095,1.346-0.409,2.157c0.77,0.909,1.712,0.584,2.544,0.069
					c1.646-1.02,1.688-2.774,1.646-4.377c-0.029-1.182,0.29-1.994,1.085-2.784c1.931-1.919,2.394-4.224,1.597-6.792
					c-0.187-0.6-0.284-1.123,0.25-1.599c1.722-1.53,2.031-3.595,1.689-5.648c-0.332-1.991-0.658-3.78,0.966-5.421
					c0.406-0.41,0.391-1.331,0.406-2.021c0.077-3.342-2.055-5.751-3.799-8.229c-0.786-1.115-1.18-1.383,0.295-2.072
					c2.057-0.963,2.533-2.226,2.139-4.667c-0.286-1.77-1.492-2.547-3.157-2.791c-0.456-0.066-1.128-0.076-1.162-0.597
					c-0.102-1.57-0.909-3.04-0.629-4.655c0.107-0.615,0.331-1.071,1.021-1.261c2.581-0.714,3.46-2.52,3.273-5.074
					c-0.061-0.829-0.219-1.701,0.475-2.491c2.365-2.694,2.727-7.243,0.821-10.248c-0.479-0.755-0.603-1.492-0.505-2.33
					c0.25-2.154-0.497-3.935-2.145-5.296c-0.847-0.7-1.323-1.546-1.752-2.54c-0.497-1.152-0.553-2.137,0.62-2.674
					c1.319-0.604,1.871,0.236,2.12,1.478c0.146,0.726,0.651,1.283,1.513,1.159c0.829-0.12,1.14-0.757,1.245-1.495
					c0.23-1.609-0.328-2.873-1.716-3.748c-2.089-1.318-2.28-1.721-2.994-4.087c-0.35-1.161-0.091-1.555,0.999-2.048
					c3.854-1.744,4.419-6.5,0.933-8.747c-1.633-1.052-3.15-2.102-4.373-3.592c-0.305-0.371-1.119-0.464-0.795-1.154
					c0.209-0.446,0.631-0.993,1.053-1.092c0.603-0.142,0.689,0.65,0.991,1.039c1.203,1.551,2.114,1.661,3.03,0.335
					c1.903-2.757,0.128-8.056-3.071-8.936c-0.902-0.248-1.646-0.571-2.178-1.314c-0.669-0.936-2.561-0.941-2.473-1.901
					c0.078-0.85,1.85-0.988,2.665-1.889c0.942-1.04,1.948-0.937,2.486,0.573c0.136,0.383,0.325,0.757,0.55,1.095
					c0.398,0.598,0.881,1.215,1.697,0.952c0.931-0.3,0.873-1.156,0.787-1.919c-0.134-1.194-0.743-2.213-1.346-3.213
					c-0.647-1.076-1.528-1.812-2.899-1.396c-0.864,0.262-1.1-0.195-1.341-0.903c-0.724-2.12-2.083-3.982-2.473-6.254
					c-0.127-0.739-0.703-1.514-1.387-1.741c-2.271-0.754-3.054-2.923-4.529-4.426c-0.627-0.64-0.646-1.205-0.399-2.033
					c1.233-4.155-1.73-7.692-5.952-6.763c-3.182,0.701-6.051-1.137-9.15-0.531c-0.637,0.125-1.237-0.591-0.945-1.33
					c0.24-0.609,0.844-1.002,1.581-0.591c0.978,0.545,1.923,0.525,2.777-0.194c0.739-0.622,1.291-1.61,0.282-2.167
					c-1.018-0.561-2.087-1.329-3.402-1.227c-0.475,0.037-1.15,0.429-1.293-0.378c-0.141-0.795,0.649-0.677,1.092-0.831
					c0.944-0.328,1.751-0.768,1.741-1.916c-0.009-1.118-0.642-1.845-1.617-2.305c-1.446-0.682-2.892-0.396-4.266,0.151
					c-2.421,0.965-5.113,0.645-7.512,1.677c-0.561,0.241-0.85-0.151-1.111-0.58c-0.285-0.467-0.305-0.913,0.148-1.244
					c0.88-0.642,1.69-1.527,2.973-1.079c0.692,0.242,1.321,0.14,1.662-0.538c0.344-0.685,0.209-1.393-0.324-1.954
					c-0.746-0.786-1.633-1.054-2.713-0.705c-1.765,0.571-3.26,1.563-4.633,2.78c-0.276,0.245-0.558,0.776-1.005,0.424
					c-0.414-0.327-0.622-0.908-0.558-1.416c0.078-0.617,0.661-0.269,1.018-0.312c2.177-0.265,3.054-1.156,3.044-3.285
					c-0.003-0.696,0.108-1.211,0.668-1.687c0.546-0.464,1.43-0.917,1.082-1.808c-0.385-0.983-1.304-1.493-2.336-1.65
					c-1.508-0.229-2.906,0.231-4.234,0.882c-0.806,0.396-1.183,0.312-1.14-0.68c0.071-1.662-0.973-2.093-2.384-2.083
					c-0.836,0.006-1.656,0.15-2.345,0.625c-0.946,0.652-1.772,0.833-2.868,0.163c-0.986-0.605-2.268-0.971-3.383-0.543
					c-2.389,0.918-4.816,0.527-7.24,0.546c-3.387,0.028-4.217,0.838-4.405,4.236c-0.013,0.234-0.009,0.469-0.03,0.702
					c-0.063,0.719-0.632,0.764-1.155,0.819c-0.511,0.054-1.097,0.209-1.403-0.397c-0.284-0.561,0.231-0.826,0.511-1.18
					c1.334-1.684,0.605-3.496-1.534-3.793c-1.035-0.144-2.085,0.086-2.818,0.744c-1.377,1.236-2.606,1.337-3.986,0.082
					c-0.345-0.313-1.133-0.169-1.006-0.958c0.1-0.617,0.639-0.864,1.135-0.97c1.085-0.23,2.194-0.34,3.29-0.522
					c0.644-0.106,1.369-0.236,1.393-1.06c0.025-0.883-0.562-1.421-1.393-1.541c-1.338-0.193-2.686-0.204-3.998,0.22
					c-1.824,0.589-3.334,1.482-3.522,3.654c-0.052,0.604-0.39,0.889-0.998,1.028c-2.468,0.567-3.458,2.463-3.904,4.682
					c-0.535,2.656-2.737,4.962-5.467,5.512c-0.399,0.08-0.785,0.228-1.179,0.338c-0.723,0.202-1.47,1.219-2.176,0.269
					c-0.721-0.97,0.27-1.708,0.711-2.494c0.481-0.86,1.277-0.652,2.026-0.637c1.568,0.032,2.771-0.669,2.81-2.252
					c0.04-1.579,0.217-2.745,1.892-3.402c0.658-0.258,0.853-1.205,0.878-2.006c0.018-0.582,0.022-1.175,0.142-1.74
					c0.586-2.773-1.112-4.609-3.9-4.104c-4.006,0.726-7.125,2.83-9.394,6.211c-0.196,0.293-0.321,0.901-0.873,0.535
					c-0.44-0.292-0.559-0.737-0.137-1.195c0.159-0.171,0.31-0.356,0.427-0.557c1-1.7,0.053-3.392-1.917-3.397
					c-1.662-0.003-2.896,0.817-3.823,2.136c-0.437,0.623-0.799,1.273-1.574,1.582c-2.299,0.916-3.662,2.466-3.372,5.115
					c0.047,0.431,0.13,1.028-0.613,1.002c-0.681-0.024-0.636-0.555-0.641-1.028c-0.012-1.229,0.048-2.463-0.048-3.686
					c-0.167-2.125-2.167-4.42-4.206-4.943c-1.268-0.326-2.041,0.267-2.431,1.409c-0.467,1.366,0.747,0.968,1.333,1.183
					c2.018,0.741,3.058,2.758,2.315,4.698c-0.966-1.141-1.837-2.354-3.186-2.998c-1.171-0.559-1.641-1.299-1.687-2.702
					c-0.139-4.24-3.414-7.331-7.589-7.351c-0.894-0.004-1.383-0.32-1.797-1.072c-0.891-1.619-2.181-2.9-3.703-3.931
					c-1.315-0.891-2.636-1.078-4.077-0.12c-1.425,0.948-1.938,0.627-2.012-1.063c-0.015-0.351,0.013-0.709-0.046-1.052
					c-0.265-1.561-1.034-2.817-2.624-3.195c-1.829-0.434-3.603-0.083-5.15,1.051c-0.343,0.251-0.523,0.728-0.307,1.107
					c0.269,0.472,0.583-0.159,0.912-0.086c1.137,0.25,2.283,0.462,3.416,0.733c0.59,0.142,0.799,0.616,0.848,1.194
					c0.083,0.962-0.125,1.848-0.536,2.718c-0.722,1.53-0.488,1.901,1.161,2.116c0.554,0.072,1.032-0.116,1.542-0.237
					c1.902-0.454,3.214,0.09,4.276,1.667c0.214,0.318,0.615,0.518,0.946,0.749c0.332,0.231,0.812,0.402,0.691,0.898
					c-0.12,0.493-0.625,0.447-1.026,0.482c-2.335,0.206-4.646,0.471-6.47-1.604c-0.549-0.624-1.435-1.052-2.248-1.322
					c-1.711-0.567-2.485-2.036-2.968-3.43c-1.069-3.088-3.649-4.101-6.372-2.1c-1.014,0.746-1.383,0.663-1.861-0.5
					c-0.757-1.839-2.413-1.957-3.647-0.368c-1.165,1.501-0.918,3.574,0.609,4.876c0.398,0.34,0.876,0.586,1.293,0.907
					c0.481,0.369,0.683,0.914,0.262,1.368c-0.621,0.672-1.514,0.497-2.323,0.455c-0.693-0.037-1.167-0.341-1.415-1.08
					c-1.106-3.294-4.744-4.74-7.716-2.819c-1.369,0.884-2.254,1.252-3.72,0.277c-0.951-0.631-2.164-0.144-3.055,0.68
					c-0.344,0.317-0.643,0.687-1.005,0.981c-0.911,0.738-1.708,0.092-2.384-0.374c-0.8-0.553,0.069-0.988,0.325-1.42
					c0.904-1.522,0.603-2.805-0.929-3.712c-0.652-0.386-1.354-0.694-1.984-1.111c-0.98-0.649-1.955-0.854-2.891-0.018
					c-0.96,0.859-0.969,1.945-0.491,3.057c0.16,0.372,0.488,0.678,0.62,1.056c0.204,0.585,0.034,1.246-0.681,0.955
					c-1.34-0.546-2.526-0.073-3.833,0.418c0.208-1.104,0.895-1.574,1.565-2.027c1.111-0.75,0.599-1.364-0.172-1.868
					c-0.911-0.595-1.8-0.33-2.585,0.317c-1.286,1.059-2.005,2.436-2.126,4.093c-0.101,1.379-1.165,1.143-1.959,1.122
					c-1.057-0.028-0.48-0.827-0.432-1.315c0.24-2.418-1.116-3.917-3.552-3.921c-1.111-0.002-2.064,0.36-2.877,1.106
					c-0.375,0.345-0.773,0.556-1.243,0.188c-0.523-0.409-0.168-0.842-0.002-1.257c0.411-1.024,1.275-1.64,2.06-2.348
					c0.753-0.679,1.432-1.521,0.828-2.61c-0.576-1.04-1.612-1.333-2.722-1.148c-0.619,0.103-1.304,0.304-1.778,0.687
					c-2.195,1.768-3.63,4.042-3.542,6.919c0.043,1.401,0.534,2.693-1.504,2.96c-0.306,0.04-0.661,0.523-0.799,0.877
					c-0.442,1.131-1.282,1.382-2.379,1.333c-0.514-0.023-1.034,0.162-1.555,0.229c-0.993,0.128-1.979,1.571-2.837,0.606
					c-0.784-0.881,0.662-1.68,0.964-2.583c0.487-1.453-0.399-3.214-2.112-3.937c-1.233-0.52-2.418-0.187-2.734,1.045
					c-0.573,2.233-1.76,4.55-0.981,6.824c0.589,1.718-0.044,2.604-1.055,3.606c-0.264,0.261-0.408,0.86-0.917,0.577
					c-0.458-0.255-0.476-0.816-0.327-1.262c0.119-0.358,0.426-0.653,0.661-0.993c-0.716-0.41-1.48-0.416-2.068-0.076
					c-0.953,0.551-1.146,0.172-1.316-0.69c-0.31-1.572-1.356-2.438-2.921-2.584c-1.188-0.112-1.992-0.459-2.534-1.7
					c-0.688-1.573-2.103-1.592-3.166-0.22c-0.549,0.708-0.833,1.529-0.887,2.437c-0.09,1.533,0.026,3.03,0.469,4.514
					c0.216,0.725,0.396,1.584-0.815,1.684c-2.053,0.168-3.871,0.848-5.327,2.372c-0.185,0.194-0.513,0.305-0.791,0.346
					c-0.509,0.077-1.155,0.281-1.483-0.181c-0.294-0.414,0.187-0.853,0.41-1.254c1.061-1.902,2.564-3.199,4.882-3.393
					c-3.374-0.813-5.174-0.193-7.714,2.477c-0.378,0.397-0.593,0.994-1.396,0.787c-1.013-0.261-2.074-0.331-3.102-0.545
					c-1.881-0.393-3.217,0.363-3.281,2.268c-0.078,2.32-0.393,4.724,0.415,6.962c0.507,1.407,0.168,1.896-1.21,1.989
					c-0.522,0.035-1.055,0.114-1.552,0.272c-1.774,0.565-3.619,1.32-3.952,3.321c-0.237,1.429-1.299,2.506-1.287,3.96
					c0.001,0.231-0.137,0.497-0.409,0.478c-0.357-0.024-0.459-0.316-0.43-0.636c0.033-0.35,0.101-0.696,0.135-1.045
					c0.106-1.083-0.19-2.008-1.215-2.51c-1.082-0.53-2.062-0.207-2.887,0.595c-0.542,0.527-1.006,1.117-1.627,1.585
					c-1.477,1.115-1.433,2.677,0.04,3.8c0.555,0.424,1.15,0.797,1.689,1.24c0.302,0.249,0.77,0.503,0.665,0.956
					c-0.12,0.52-0.671,0.319-1.043,0.397c-2.014,0.425-3.628,1.796-3.523,3.361c0.134,1.995-0.838,3.473-1.885,4.93
					c-0.504,0.7-0.971,2.131-1.933,1.632c-0.917-0.477,0.232-1.485,0.426-2.257c0.378-1.503,0.325-2.863-1.142-3.69
					c-1.411-0.796-2.671-0.235-3.533,0.966c-0.643,0.896-1.293,0.917-2.242,0.678c-0.951-0.24-1.867-0.021-2.438,0.935
					c-0.57,0.957-0.306,1.863,0.326,2.602c0.64,0.748,1.488,1.313,2.178,2.024c0.541,0.558,1.339,1.122,0.558,2.067
					c-0.512,0.621-0.937,1.333-0.345,2.05c0.559,0.677,1.434,0.479,2.142,0.258c1.124-0.351,2.037-0.51,2.5,0.927
					c0.327,1.011,1.718,1.527,1.361,2.89c-0.35,1.333-0.886,2.566-1.738,3.677c0.325-1.487,1.108-2.917,0.115-4.404
					c-0.733-1.1-5.875-2.573-7.105-2.031c-0.212,0.094-0.404,0.237-0.599,0.367c-0.216,0.144-0.491,0.209-0.623-0.015
					c-0.973-1.653-2.691-1.083-4.107-1.397c-1.144-0.253-2.301-0.284-2.885,0.976c-0.579,1.25,0.049,2.212,0.927,3.122
					c1.642,1.701,4.259,3.043,2.502,6.149c-0.076,0.135-0.034,0.327-0.417,0.326c-0.842-1.338-2.757-0.788-3.867-2.009
					c-0.783-0.86-1.899-0.98-2.867-0.23c-0.995,0.771-1.162,1.843-0.711,3.007c0.381,0.983,1.084,1.693,2.041,2.069
					c1.135,0.446,1.926,1.2,2.68,2.148c0.683,0.858,0.823,1.292-0.294,1.77c-1.071,0.458-1.881,1.196-1.944,2.479
					c-0.048,0.979-0.893,0.738-1.442,0.933c-0.354,0.125-0.625,0.078-0.824-0.356c-1.323-2.876-1.333-2.867-4.359-2.238
					c-0.282,0.059-0.583,0.021-0.875,0.038c-1.118,0.065-1.902,0.618-2.2,1.695c-0.288,1.038,0.192,1.927,1.041,2.401
					c1.335,0.746,2.445,1.764,3.671,2.632c2.38,1.685,2.438,1.603,2.325,4.265c0.911-0.562,1.746-1.561,3.072-0.403
					c-1.708,0.503-2.586,1.661-3.168,3.146c-1.407-1.815-1.406-1.821-3.807-2.403c-0.387-0.094-0.56-0.369-0.772-0.653
					c-0.655-0.877-1.491-1.324-2.593-0.91c-1.128,0.423-1.571,1.345-1.656,2.469c-0.159,2.09,1.089,4.239,3.137,4.752
					c1.784,0.447,3.347,1.367,5.076,1.895c0.423,0.129,1.39,0.257,0.822,0.895c-0.596,0.668,0.024,2.443-1.668,2.059
					c-1.816-0.413-3.126,0.087-3.874,1.807c-0.302,0.694-0.612,0.887-1.307,0.45c-0.938-0.59-2.023-0.617-2.741,0.218
					c-0.794,0.923-1.647,1.111-2.761,1.004c-0.957-0.092-1.694,0.392-2.116,1.274c-0.457,0.956,0.006,1.716,0.616,2.381
					c0.735,0.802,1.694,1.314,2.766,1.401c2.21,0.179,4.152,1.539,6.852,1.096c-1.043,1.249-0.974,2.348-0.955,3.549
					c-0.711-0.476-0.851-1.062-0.87-1.619c-0.052-1.542-0.854-1.25-1.726-0.744c-1.044,0.607-1.143,1.606-0.846,2.618
					c0.387,1.319,1.063,2.509,2.354,3.144c0.716,0.352,0.821,0.593,0.321,1.277c-1.833,2.509-1.831,3.395,0.161,5.886
					c0.753,0.942,0.945,1.928,0.619,2.942c-0.337,1.05-0.443,2.108-0.41,3.319c-1.745-1.531-1.797-1.697-1.44-4.376
					c-1.483,0.852-2.828,1.699-2.639,3.595c0.192,1.922,3.159,5.031,5.146,5.417c0.725,0.141,0.881,0.405,0.672,1.05
					c-1.165,3.592-1.835,7.293-1.597,11.05c0.151,2.394,1.657,4.486,3.367,5.929c0.996,0.841,1.863,1.403,2.144,2.719
					c0.116,0.544,0.496,1.061,0.851,1.516c0.435,0.556,0.578,1.081,0.369,1.781c-0.78,2.612,0.216,4.561,2.36,6.051
					c0.471,0.328,0.955,0.589,1.175,1.229c0.777,2.256,1.277,4.513,0.839,6.927c-0.195,1.074,0.05,2.153,1.062,2.794
					c0.815,0.516,2.282,0.773,2.415-0.048c0.178-1.092,0.795-0.932,1.336-1.176c0.709-0.319,1.311-0.751,1.777-1.387
					c0.363-0.496,0.659-1.489,1.292-1.196c0.754,0.35,0.4,1.334,0.281,2.069c-0.028,0.172-0.083,0.344-0.153,0.504
					c-1.919,4.364,1.116,7.304,3.042,10.56c0.083,0.142,0.261,0.234,0.408,0.329c0.521,0.336,0.736,0.82,0.928,1.413
					c1.059,3.272,2.867,4.285,6.221,3.487c0,0.953-0.061,1.887,0.013,2.811c0.144,1.819,0.264,3.764,1.854,4.938
					c1.383,1.021,2.978,1.714,3.917,3.298c0.309,0.521,1.048,0.723,1.716,0.769c1.766,0.12,3.035,0.988,3.988,2.468
					c0.6,0.93,1.326,1.786,2.06,2.618c0.506,0.575,1.215,0.736,1.928,0.416c0.649-0.291,0.852-0.869,0.906-1.575
					c0.118-1.536,0.13-2.962-1.69-3.58c-0.63-0.214-0.43-0.729-0.306-1.186c0.079-0.292,0.177-0.615,0.52-0.626
					c0.558-0.018,0.526,0.523,0.71,0.859c0.856,1.555,1.259,3.179,1.349,4.99c0.233,4.668,4.307,7.77,8.942,7.003
					c1.365-0.226,2.011,0.386,1.728,1.742c-0.182,0.872-0.299,1.728-0.171,2.609c0.321,2.214,2.614,4.415,4.466,4.256
					c1.082-0.093,2.03-0.595,2.175-1.704c0.169-1.296-0.941-1.206-1.816-1.271c-1.029-0.077-1.541-0.78-1.822-1.655
					c-0.197-0.615,0.021-1.164,0.595-1.511c0.712-0.428,0.892,0.208,1.191,0.613c0.743,1.007,6.009,4.634,7.214,4.948
					c0.449,0.117,0.949,0.304,1.371,0.209c1.197-0.267,1.671,0.323,2.033,1.335c2.346,6.539,6.133,12.262,10.617,17.456
					c7.279,8.433,16.518,14.276,26.498,18.996c5.452,2.578,11.042,4.842,16.742,6.821c0.777,0.27,1.285,0.738,1.642,1.466
					c2.494,5.077,3.783,10.508,4.576,16.058c0.924,6.464-0.364,12.673-2.367,18.799c-0.834,2.554-1.409,5.194-2.057,7.806
					c-0.258,1.042-0.164,2.13,1.044,2.454c1.25,0.335,1.345-0.849,1.602-1.636c0.966-2.949,1.919-5.904,2.825-8.873
					c1.668-5.471,2.689-11.033,2.233-16.791c-0.429-5.409-1.615-10.639-3.62-15.683c-0.146-0.37-0.455-0.793-0.19-1.163
					c0.297-0.416,0.771-0.139,1.139-0.029c4.566,1.357,9.269,2.003,13.97,2.619c4.29,0.563,8.579,1.346,12.936,0.614
					c0.391-0.066,0.868-0.2,1.313,0.321c-0.527,0.158-0.906,0.312-1.3,0.383c-3.108,0.565-6.224,1.098-9.329,1.68
					c-1.186,0.222-2.384,0.613-2.513,2.049c-0.123,1.373,0.996,1.949,2.039,2.321c2.151,0.766,4.353,1.398,6.661,1.494
					c6.029,0.249,11.847-1.04,17.303-3.341c9.2-3.88,17.004-9.816,23.316-17.609c2.127-2.627,3.831-5.459,3.857-9.025
					c0.011-1.521-0.333-2.671-1.993-3.021c-1.387-0.292-1.226-0.953-0.478-1.825c3.086-3.602,6.198-7.181,9.021-10.999
					c0.217-0.293,0.402-0.753,0.938-0.597c0.275,0.478,0.044,0.938-0.051,1.374c-1.726,7.904-1.98,15.865-1.443,23.933
					c0.768,11.541,4.72,21.646,12.544,30.194c0.464,0.507,0.842,1.59,1.752,1.021c0.872-0.545,0.312-1.493,0.1-2.251
					c-0.209-0.749-0.739-1.312-1.257-1.878c-0.591-0.645-1.157-1.314-1.699-2c-2.005-2.535-3.271-5.487-4.566-8.4
					c-1.246-2.8-2.271-5.714-2.768-8.746c-0.642-3.923-0.782-7.903-1.028-11.868c-0.269-4.326,0.128-8.624,0.568-12.918
					c0.063-0.611,0.128-1.511,0.991-1.342c0.887,0.173,0.595,0.942,0.361,1.578c-0.66,1.793-0.152,3.252,1.453,4.226
					c0.709,0.429,0.768,0.818,0.577,1.555c-0.283,1.094,2.217,5.206,3.286,5.631c0.532,0.212,1.023,0.159,1.527-0.064
					c1.479-0.653,2.251-1.928,1.972-3.383c-0.443-2.314,1.069-4.416,0.457-6.724c-0.116-0.439,0.171-1.276,0.943-1.499
					c0.651,2.568,0.64,2.606,3.406,3.41c0.973,0.282,0.596,0.865,0.439,1.357c-0.382,1.198-1.041,2.317-1.05,3.909
					c2.162-1.218,3.934-2.412,4.445-4.864c0.299-1.438,1.038-1.668,2.217-0.802c0.598,0.438,0.987,0.972,0.889,1.781
					c-0.103,0.85-0.654,1.126-1.391,1.343c-2.64,0.778-3.061,1.536-2.146,4.024c0.229,0.623-0.056,0.979-0.237,1.456
					c-0.646,1.703,0.264,3.058,2.09,3.149c2.09,0.104,3.773-1.289,4.169-3.481c0.124-0.684-0.007-1.464,0.537-1.994
					c1.313-1.279,1.651-2.917,1.832-4.629c0.061-0.581,0.058-1.181,0.646-1.548c1.555-0.971,2.703-2.281,3.141-3.995
					c1.474,1.338,2.247,2.787,2.174,4.846c-0.064,1.783,1.939,2.407,3.339,1.239c0.757-0.633,1.164-1.513,1.309-2.432
					c0.417-2.648,0.71-5.316,1.098-7.971c0.117-0.802-0.57-1.626,0.104-2.653c0.58,1.085,0.898,2.179,2.223,2.196
					c0.471,0.006,1.201-0.389,1.388,0.276c0.21,0.75-0.555,1.068-1.074,1.427c-0.288,0.199-0.613,0.343-0.907,0.535
					c-0.647,0.426-1.383,0.901-1.017,1.799c0.376,0.921,1.301,1.009,2.112,0.766c1.553-0.466,2.885-1.312,3.641-2.826
					c0.298-0.597,0.505-1.086,1.382-1.009c2.393,0.211,3.86-1.048,4.607-3.229C273.483,271.378,273.938,270.965,275.001,271.289z"/>
				<path fill-rule="evenodd" clip-rule="evenodd" d="M275.001,271.289c-1.063-0.324-1.518,0.089-1.809,0.937
					c-0.747,2.182-2.215,3.44-4.607,3.229c-0.877-0.077-1.084,0.412-1.382,1.009c-0.756,1.515-2.088,2.36-3.641,2.826
					c-0.812,0.243-1.736,0.155-2.112-0.766c-0.366-0.897,0.369-1.373,1.017-1.799c0.294-0.192,0.619-0.336,0.907-0.535
					c0.52-0.358,1.284-0.677,1.074-1.427c-0.187-0.665-0.917-0.271-1.388-0.276c-1.324-0.018-1.643-1.111-2.223-2.196
					c-0.675,1.027,0.013,1.852-0.104,2.653c-0.388,2.654-0.681,5.322-1.098,7.971c-0.145,0.919-0.552,1.799-1.309,2.432
					c-1.399,1.168-3.403,0.544-3.339-1.239c0.073-2.059-0.7-3.508-2.174-4.846c-0.438,1.714-1.586,3.024-3.141,3.995
					c-0.588,0.367-0.585,0.967-0.646,1.548c-0.181,1.712-0.52,3.35-1.832,4.629c-0.544,0.53-0.413,1.311-0.537,1.994
					c-0.396,2.192-2.079,3.586-4.169,3.481c-1.826-0.092-2.736-1.446-2.09-3.149c0.182-0.477,0.467-0.833,0.237-1.456
					c-0.914-2.488-0.493-3.246,2.146-4.024c0.736-0.217,1.288-0.493,1.391-1.343c0.099-0.81-0.291-1.344-0.889-1.781
					c-1.179-0.866-1.918-0.637-2.217,0.802c-0.512,2.452-2.283,3.646-4.445,4.864c0.009-1.592,0.668-2.711,1.05-3.909
					c0.156-0.492,0.533-1.075-0.439-1.357c-2.767-0.804-2.755-0.842-3.406-3.41c-0.772,0.223-1.06,1.06-0.943,1.499
					c0.612,2.308-0.9,4.409-0.457,6.724c0.279,1.455-0.493,2.729-1.972,3.383c-0.504,0.224-0.995,0.276-1.527,0.064
					c-1.069-0.425-3.569-4.537-3.286-5.631c0.19-0.736,0.132-1.126-0.577-1.555c-1.605-0.974-2.113-2.433-1.453-4.226
					c0.233-0.636,0.525-1.405-0.361-1.578c-0.863-0.169-0.929,0.73-0.991,1.342c-0.44,4.294-0.837,8.592-0.568,12.918
					c0.246,3.965,0.387,7.945,1.028,11.868c0.496,3.032,1.521,5.946,2.768,8.746c1.295,2.913,2.562,5.865,4.566,8.4
					c0.542,0.686,1.108,1.355,1.699,2c0.518,0.566,1.048,1.129,1.257,1.878c0.212,0.758,0.772,1.706-0.1,2.251
					c-0.91,0.569-1.288-0.514-1.752-1.021c-7.824-8.548-11.776-18.653-12.544-30.194c-0.537-8.067-0.282-16.028,1.443-23.933
					c0.095-0.437,0.326-0.896,0.051-1.374c-0.536-0.156-0.722,0.304-0.938,0.597c-2.822,3.818-5.935,7.397-9.021,10.999
					c-0.748,0.872-0.909,1.533,0.478,1.825c1.66,0.35,2.004,1.499,1.993,3.021c-0.026,3.566-1.73,6.398-3.857,9.025
					c-6.313,7.793-14.116,13.729-23.316,17.609c-5.456,2.301-11.273,3.59-17.303,3.341c-2.309-0.096-4.51-0.729-6.661-1.494
					c-1.043-0.372-2.162-0.948-2.039-2.321c0.129-1.436,1.327-1.827,2.513-2.049c3.105-0.582,6.221-1.114,9.329-1.68
					c0.394-0.071,0.772-0.225,1.3-0.383c-0.444-0.521-0.922-0.388-1.313-0.321c-4.357,0.731-8.646-0.052-12.936-0.614
					c-4.701-0.616-9.403-1.262-13.97-2.619c-0.368-0.109-0.842-0.387-1.139,0.029c-0.264,0.37,0.044,0.793,0.19,1.163
					c2.004,5.044,3.191,10.273,3.62,15.683c0.457,5.758-0.564,11.32-2.233,16.791c-0.906,2.969-1.859,5.924-2.825,8.873
					c-0.257,0.787-0.352,1.971-1.602,1.636c-1.208-0.324-1.303-1.412-1.044-2.454c0.648-2.611,1.223-5.252,2.057-7.806
					c2.003-6.126,3.291-12.335,2.367-18.799c-0.793-5.55-2.082-10.98-4.576-16.058c-0.357-0.728-0.865-1.196-1.642-1.466
					c-5.7-1.979-11.29-4.243-16.742-6.821c-9.98-4.72-19.219-10.563-26.498-18.996c-4.483-5.194-8.271-10.917-10.617-17.456
					c-0.362-1.012-0.836-1.602-2.033-1.335c-0.421,0.095-0.921-0.092-1.371-0.209c-1.205-0.314-6.471-3.941-7.214-4.948
					c-0.299-0.405-0.479-1.041-1.191-0.613c-0.575,0.347-0.792,0.896-0.595,1.511c0.281,0.875,0.793,1.578,1.822,1.655
					c0.875,0.065,1.985-0.024,1.816,1.271c-0.145,1.109-1.093,1.611-2.175,1.704c-1.852,0.159-4.145-2.042-4.466-4.256
					c-0.128-0.882-0.011-1.737,0.171-2.609c0.284-1.356-0.363-1.968-1.728-1.742c-4.635,0.767-8.709-2.335-8.942-7.003
					c-0.09-1.812-0.493-3.436-1.349-4.99c-0.185-0.336-0.152-0.877-0.71-0.859c-0.342,0.011-0.44,0.334-0.52,0.626
					c-0.124,0.456-0.324,0.972,0.306,1.186c1.82,0.618,1.808,2.044,1.69,3.58c-0.054,0.706-0.257,1.284-0.906,1.575
					c-0.712,0.32-1.421,0.159-1.928-0.416c-0.733-0.832-1.46-1.688-2.06-2.618c-0.954-1.479-2.223-2.348-3.988-2.468
					c-0.667-0.046-1.407-0.248-1.716-0.769c-0.939-1.584-2.534-2.277-3.917-3.298c-1.591-1.174-1.711-3.118-1.854-4.938
					c-0.073-0.924-0.013-1.857-0.013-2.811c-3.354,0.798-5.162-0.215-6.221-3.487c-0.192-0.593-0.407-1.077-0.928-1.413
					c-0.147-0.095-0.324-0.188-0.408-0.329c-1.926-3.256-4.961-6.195-3.042-10.56c0.07-0.16,0.125-0.332,0.153-0.504
					c0.12-0.735,0.473-1.72-0.281-2.069c-0.633-0.293-0.929,0.7-1.292,1.196c-0.466,0.636-1.067,1.067-1.777,1.387
					c-0.542,0.244-1.159,0.084-1.336,1.176c-0.133,0.821-1.6,0.563-2.415,0.048c-1.012-0.641-1.257-1.72-1.062-2.794
					c0.438-2.414-0.063-4.671-0.839-6.927c-0.22-0.64-0.705-0.9-1.175-1.229c-2.144-1.49-3.141-3.438-2.36-6.051
					c0.209-0.7,0.066-1.226-0.369-1.781c-0.355-0.455-0.734-0.972-0.851-1.516c-0.281-1.315-1.147-1.878-2.144-2.719
					c-1.71-1.442-3.215-3.535-3.367-5.929c-0.238-3.757,0.432-7.458,1.597-11.05c0.209-0.645,0.053-0.909-0.672-1.05
					c-1.987-0.386-4.954-3.495-5.146-5.417c-0.189-1.896,1.155-2.743,2.639-3.595c-0.357,2.679-0.304,2.845,1.44,4.376
					c-0.033-1.211,0.073-2.269,0.41-3.319c0.326-1.014,0.134-2-0.619-2.942c-1.992-2.491-1.994-3.377-0.161-5.886
					c0.5-0.685,0.395-0.926-0.321-1.277c-1.291-0.634-1.967-1.825-2.354-3.144c-0.297-1.012-0.199-2.011,0.846-2.618
					c0.871-0.506,1.674-0.797,1.726,0.744c0.019,0.557,0.158,1.143,0.87,1.619c-0.019-1.202-0.088-2.3,0.955-3.549
					c-2.699,0.443-4.642-0.917-6.852-1.096c-1.071-0.086-2.03-0.599-2.766-1.401c-0.61-0.665-1.073-1.425-0.616-2.381
					c0.422-0.883,1.159-1.366,2.116-1.274c1.114,0.107,1.967-0.081,2.761-1.004c0.718-0.834,1.803-0.808,2.741-0.218
					c0.695,0.437,1.005,0.244,1.307-0.45c0.748-1.72,2.058-2.22,3.874-1.807c1.692,0.385,1.072-1.39,1.668-2.059
					c0.568-0.638-0.399-0.765-0.822-0.895c-1.729-0.528-3.292-1.448-5.076-1.895c-2.048-0.513-3.296-2.662-3.137-4.752
					c0.085-1.125,0.528-2.046,1.656-2.469c1.103-0.414,1.938,0.033,2.593,0.91c0.212,0.284,0.385,0.56,0.772,0.653
					c2.4,0.583,2.399,0.588,3.807,2.403c0.583-1.485,1.46-2.642,3.168-3.146c-1.326-1.158-2.161-0.159-3.072,0.403
					c0.112-2.662,0.055-2.581-2.325-4.265c-1.226-0.868-2.335-1.887-3.671-2.632c-0.849-0.474-1.329-1.364-1.041-2.401
					c0.298-1.078,1.083-1.63,2.2-1.695c0.292-0.017,0.593,0.021,0.875-0.038c3.026-0.629,3.037-0.639,4.359,2.238
					c0.199,0.434,0.47,0.481,0.824,0.356c0.549-0.194,1.394,0.046,1.442-0.933c0.063-1.283,0.873-2.021,1.944-2.479
					c1.117-0.478,0.977-0.912,0.294-1.77c-0.754-0.948-1.545-1.702-2.68-2.148c-0.957-0.376-1.66-1.085-2.041-2.069
					c-0.45-1.164-0.283-2.235,0.711-3.007c0.968-0.75,2.084-0.63,2.867,0.23c1.11,1.221,3.025,0.67,3.867,2.009
					c0.382,0.001,0.34-0.191,0.417-0.326c1.756-3.106-0.86-4.449-2.502-6.149c-0.878-0.91-1.505-1.872-0.927-3.122
					c0.584-1.26,1.741-1.229,2.885-0.976c1.416,0.313,3.134-0.256,4.107,1.397c0.132,0.224,0.406,0.159,0.623,0.015
					c0.195-0.13,0.387-0.273,0.599-0.367c1.23-0.542,6.372,0.931,7.105,2.031c0.993,1.488,0.21,2.917-0.115,4.404
					c0.853-1.11,1.389-2.344,1.738-3.677c0.357-1.362-1.034-1.878-1.361-2.89c-0.464-1.437-1.376-1.277-2.5-0.927
					c-0.708,0.221-1.583,0.419-2.142-0.258c-0.591-0.717-0.167-1.429,0.345-2.05c0.781-0.945-0.017-1.51-0.558-2.067
					c-0.689-0.711-1.538-1.276-2.178-2.024c-0.632-0.739-0.896-1.645-0.326-2.602c0.571-0.956,1.487-1.175,2.438-0.935
					c0.948,0.239,1.599,0.218,2.242-0.678c0.862-1.201,2.123-1.762,3.533-0.966c1.467,0.827,1.52,2.187,1.142,3.69
					c-0.194,0.771-1.343,1.78-0.426,2.257c0.962,0.499,1.429-0.932,1.933-1.632c1.047-1.457,2.019-2.935,1.885-4.93
					c-0.105-1.565,1.509-2.937,3.523-3.361c0.372-0.079,0.923,0.123,1.043-0.397c0.105-0.453-0.362-0.708-0.665-0.956
					c-0.539-0.442-1.134-0.816-1.689-1.24c-1.473-1.123-1.517-2.685-0.04-3.8c0.621-0.468,1.084-1.058,1.627-1.585
					c0.826-0.802,1.805-1.125,2.887-0.595c1.024,0.502,1.321,1.428,1.215,2.51c-0.034,0.35-0.103,0.695-0.135,1.045
					c-0.029,0.32,0.073,0.612,0.43,0.636c0.271,0.019,0.41-0.247,0.409-0.478c-0.012-1.454,1.05-2.531,1.287-3.96
					c0.333-2.001,2.177-2.755,3.952-3.321c0.497-0.158,1.03-0.238,1.552-0.272c1.378-0.093,1.717-0.582,1.21-1.989
					c-0.808-2.238-0.492-4.642-0.415-6.962c0.064-1.905,1.399-2.66,3.281-2.268c1.028,0.214,2.089,0.284,3.102,0.545
					c0.803,0.207,1.019-0.39,1.396-0.787c2.54-2.67,4.34-3.29,7.714-2.477c-2.318,0.194-3.822,1.491-4.882,3.393
					c-0.224,0.401-0.705,0.84-0.41,1.254c0.328,0.462,0.974,0.258,1.483,0.181c0.278-0.042,0.605-0.152,0.791-0.346
					c1.456-1.524,3.274-2.204,5.327-2.372c1.211-0.1,1.031-0.958,0.815-1.684c-0.442-1.484-0.559-2.981-0.469-4.514
					c0.054-0.908,0.337-1.728,0.887-2.437c1.063-1.373,2.479-1.354,3.166,0.22c0.542,1.241,1.346,1.588,2.534,1.7
					c1.565,0.146,2.611,1.012,2.921,2.584c0.17,0.862,0.363,1.241,1.316,0.69c0.588-0.34,1.352-0.334,2.068,0.076
					c-0.235,0.34-0.542,0.635-0.661,0.993c-0.149,0.446-0.131,1.007,0.327,1.262c0.509,0.284,0.653-0.315,0.917-0.577
					c1.011-1.002,1.644-1.888,1.055-3.606c-0.779-2.274,0.408-4.591,0.981-6.824c0.316-1.232,1.501-1.565,2.734-1.045
					c1.713,0.723,2.599,2.484,2.112,3.937c-0.303,0.903-1.749,1.702-0.964,2.583c0.859,0.965,1.845-0.479,2.837-0.606
					c0.521-0.067,1.041-0.252,1.555-0.229c1.097,0.049,1.937-0.202,2.379-1.333c0.138-0.354,0.493-0.838,0.799-0.877
					c2.038-0.267,1.547-1.56,1.504-2.96c-0.088-2.876,1.347-5.151,3.542-6.919c0.474-0.382,1.16-0.583,1.778-0.687
					c1.109-0.185,2.146,0.108,2.722,1.148c0.604,1.089-0.075,1.931-0.828,2.61c-0.785,0.708-1.649,1.323-2.06,2.348
					c-0.167,0.415-0.521,0.849,0.002,1.257c0.47,0.368,0.868,0.157,1.243-0.188c0.813-0.747,1.766-1.109,2.877-1.106
					c2.437,0.005,3.792,1.503,3.552,3.921c-0.048,0.488-0.625,1.287,0.432,1.315c0.794,0.021,1.859,0.258,1.959-1.122
					c0.121-1.657,0.84-3.034,2.126-4.093c0.785-0.647,1.674-0.912,2.585-0.317c0.771,0.504,1.284,1.118,0.172,1.868
					c-0.671,0.453-1.358,0.923-1.565,2.027c1.308-0.491,2.493-0.965,3.833-0.418c0.715,0.291,0.885-0.369,0.681-0.955
					c-0.132-0.378-0.459-0.684-0.62-1.056c-0.478-1.112-0.469-2.198,0.491-3.057c0.936-0.836,1.911-0.631,2.891,0.018
					c0.63,0.417,1.332,0.726,1.984,1.111c1.532,0.907,1.833,2.19,0.929,3.712c-0.256,0.432-1.125,0.867-0.325,1.42
					c0.675,0.466,1.473,1.112,2.384,0.374c0.362-0.294,0.661-0.664,1.005-0.981c0.891-0.823,2.104-1.311,3.055-0.68
					c1.466,0.975,2.352,0.607,3.72-0.277c2.972-1.92,6.609-0.475,7.716,2.819c0.248,0.739,0.721,1.043,1.415,1.08
					c0.809,0.042,1.702,0.217,2.323-0.455c0.42-0.455,0.219-0.999-0.262-1.368c-0.417-0.32-0.895-0.567-1.293-0.907
					c-1.527-1.302-1.774-3.375-0.609-4.876c1.234-1.589,2.89-1.472,3.647,0.368c0.479,1.163,0.847,1.246,1.861,0.5
					c2.723-2.001,5.303-0.988,6.372,2.1c0.482,1.394,1.257,2.863,2.968,3.43c0.813,0.27,1.699,0.698,2.248,1.322
					c1.824,2.074,4.135,1.809,6.47,1.604c0.401-0.036,0.906,0.01,1.026-0.482c0.12-0.497-0.359-0.667-0.691-0.898
					c-0.331-0.231-0.732-0.431-0.946-0.749c-1.063-1.577-2.374-2.122-4.276-1.667c-0.51,0.122-0.988,0.309-1.542,0.237
					c-1.649-0.215-1.883-0.586-1.161-2.116c0.411-0.871,0.619-1.756,0.536-2.718c-0.049-0.578-0.258-1.052-0.848-1.194
					c-1.133-0.271-2.278-0.484-3.416-0.733c-0.329-0.072-0.643,0.558-0.912,0.086c-0.217-0.379-0.036-0.856,0.307-1.107
					c1.548-1.134,3.321-1.485,5.15-1.051c1.59,0.377,2.359,1.634,2.624,3.195c0.059,0.343,0.031,0.701,0.046,1.052
					c0.073,1.69,0.587,2.011,2.012,1.063c1.441-0.958,2.762-0.771,4.077,0.12c1.522,1.031,2.813,2.312,3.703,3.931
					c0.414,0.752,0.903,1.068,1.797,1.072c4.175,0.02,7.45,3.11,7.589,7.351c0.046,1.402,0.516,2.143,1.687,2.702
					c1.349,0.644,2.22,1.857,3.186,2.998c0.742-1.94-0.298-3.957-2.315-4.698c-0.586-0.215-1.8,0.184-1.333-1.183
					c0.39-1.142,1.163-1.734,2.431-1.409c2.039,0.523,4.039,2.818,4.206,4.943c0.096,1.222,0.036,2.457,0.048,3.686
					c0.005,0.473-0.04,1.003,0.641,1.028c0.743,0.026,0.66-0.571,0.613-1.002c-0.29-2.649,1.073-4.199,3.372-5.115
					c0.775-0.309,1.138-0.959,1.574-1.582c0.927-1.319,2.161-2.14,3.823-2.136c1.97,0.005,2.917,1.697,1.917,3.397
					c-0.117,0.2-0.268,0.385-0.427,0.557c-0.422,0.458-0.304,0.903,0.137,1.195c0.552,0.366,0.677-0.242,0.873-0.535
					c2.269-3.381,5.388-5.486,9.394-6.211c2.788-0.505,4.486,1.331,3.9,4.104c-0.119,0.565-0.124,1.159-0.142,1.74
					c-0.025,0.802-0.22,1.748-0.878,2.006c-1.675,0.658-1.852,1.823-1.892,3.402c-0.039,1.583-1.241,2.285-2.81,2.252
					c-0.749-0.015-1.545-0.223-2.026,0.637c-0.441,0.786-1.432,1.524-0.711,2.494c0.706,0.95,1.453-0.066,2.176-0.269
					c0.394-0.11,0.779-0.258,1.179-0.338c2.729-0.55,4.932-2.856,5.467-5.512c0.446-2.219,1.437-4.115,3.904-4.682
					c0.608-0.14,0.946-0.424,0.998-1.028c0.188-2.172,1.698-3.065,3.522-3.654c1.313-0.423,2.66-0.413,3.998-0.22
					c0.831,0.12,1.418,0.658,1.393,1.541c-0.023,0.824-0.749,0.954-1.393,1.06c-1.096,0.182-2.205,0.292-3.29,0.522
					c-0.496,0.106-1.035,0.354-1.135,0.97c-0.127,0.789,0.661,0.645,1.006,0.958c1.38,1.255,2.609,1.154,3.986-0.082
					c0.733-0.658,1.783-0.888,2.818-0.744c2.14,0.297,2.868,2.109,1.534,3.793c-0.279,0.354-0.795,0.619-0.511,1.18
					c0.307,0.606,0.893,0.451,1.403,0.397c0.523-0.055,1.092-0.1,1.155-0.819c0.021-0.233,0.018-0.468,0.03-0.702
					c0.188-3.398,1.019-4.208,4.405-4.236c2.424-0.02,4.852,0.372,7.24-0.546c1.115-0.428,2.396-0.062,3.383,0.543
					c1.096,0.67,1.922,0.49,2.868-0.163c0.688-0.475,1.509-0.618,2.345-0.625c1.411-0.01,2.455,0.421,2.384,2.083
					c-0.043,0.992,0.334,1.076,1.14,0.68c1.328-0.651,2.727-1.112,4.234-0.882c1.032,0.157,1.951,0.667,2.336,1.65
					c0.348,0.89-0.536,1.343-1.082,1.808c-0.56,0.476-0.671,0.991-0.668,1.687c0.01,2.128-0.867,3.02-3.044,3.285
					c-0.356,0.043-0.939-0.305-1.018,0.312c-0.064,0.508,0.144,1.089,0.558,1.416c0.447,0.352,0.729-0.179,1.005-0.424
					c1.373-1.217,2.868-2.208,4.633-2.78c1.08-0.35,1.967-0.082,2.713,0.705c0.533,0.561,0.668,1.269,0.324,1.954
					c-0.341,0.678-0.97,0.779-1.662,0.538c-1.282-0.448-2.093,0.437-2.973,1.079c-0.453,0.331-0.434,0.776-0.148,1.244
					c0.262,0.429,0.551,0.821,1.111,0.58c2.398-1.032,5.091-0.712,7.512-1.677c1.374-0.547,2.819-0.833,4.266-0.151
					c0.976,0.46,1.608,1.188,1.617,2.305c0.01,1.148-0.797,1.588-1.741,1.916c-0.442,0.154-1.232,0.036-1.092,0.831
					c0.143,0.807,0.818,0.415,1.293,0.378c1.315-0.102,2.385,0.666,3.402,1.227c1.009,0.556,0.457,1.544-0.282,2.167
					c-0.854,0.72-1.8,0.739-2.777,0.194c-0.737-0.411-1.341-0.018-1.581,0.591c-0.292,0.739,0.309,1.455,0.945,1.33
					c3.1-0.606,5.969,1.231,9.15,0.531c4.222-0.929,7.186,2.608,5.952,6.763c-0.246,0.829-0.228,1.394,0.399,2.033
					c1.476,1.503,2.259,3.672,4.529,4.426c0.684,0.227,1.26,1.002,1.387,1.741c0.39,2.272,1.749,4.134,2.473,6.254
					c0.241,0.708,0.477,1.166,1.341,0.903c1.371-0.416,2.252,0.32,2.899,1.396c0.603,1,1.212,2.02,1.346,3.213
					c0.086,0.763,0.144,1.619-0.787,1.919c-0.816,0.264-1.299-0.354-1.697-0.952c-0.225-0.338-0.414-0.712-0.55-1.095
					c-0.538-1.51-1.544-1.613-2.486-0.573c-0.815,0.901-2.587,1.039-2.665,1.889c-0.088,0.959,1.804,0.965,2.473,1.901
					c0.531,0.744,1.275,1.066,2.178,1.314c3.199,0.88,4.975,6.178,3.071,8.936c-0.916,1.326-1.827,1.216-3.03-0.335
					c-0.302-0.389-0.389-1.181-0.991-1.039c-0.422,0.099-0.844,0.646-1.053,1.092c-0.324,0.69,0.49,0.783,0.795,1.154
					c1.223,1.49,2.74,2.54,4.373,3.592c3.486,2.247,2.922,7.003-0.933,8.747c-1.09,0.494-1.349,0.888-0.999,2.048
					c0.714,2.366,0.905,2.769,2.994,4.087c1.388,0.875,1.946,2.139,1.716,3.748c-0.105,0.738-0.416,1.375-1.245,1.495
					c-0.861,0.124-1.367-0.433-1.513-1.159c-0.249-1.242-0.801-2.082-2.12-1.478c-1.173,0.537-1.117,1.522-0.62,2.674
					c0.429,0.994,0.905,1.84,1.752,2.54c1.647,1.361,2.395,3.142,2.145,5.296c-0.098,0.837,0.025,1.574,0.505,2.33
					c1.905,3.005,1.544,7.554-0.821,10.248c-0.693,0.79-0.535,1.663-0.475,2.491c0.187,2.554-0.692,4.36-3.273,5.074
					c-0.689,0.19-0.913,0.646-1.021,1.261c-0.28,1.615,0.527,3.084,0.629,4.655c0.034,0.521,0.706,0.53,1.162,0.597
					c1.665,0.244,2.871,1.021,3.157,2.791c0.395,2.441-0.082,3.704-2.139,4.667c-1.475,0.689-1.081,0.957-0.295,2.072
					c1.744,2.478,3.876,4.887,3.799,8.229c-0.016,0.689,0,1.61-0.406,2.021c-1.624,1.641-1.298,3.43-0.966,5.421
					c0.342,2.054,0.032,4.118-1.689,5.648c-0.534,0.476-0.437,0.999-0.25,1.599c0.797,2.568,0.334,4.873-1.597,6.792
					c-0.795,0.79-1.114,1.603-1.085,2.784c0.041,1.603-0.001,3.357-1.646,4.377c-0.832,0.515-1.774,0.84-2.544-0.069
					c-0.686-0.812-0.209-1.544,0.409-2.157c0.446-0.444,0.626-0.978,0.682-1.573c0.04-0.425-0.008-0.852-0.428-1.07
					c-0.418-0.217-0.633,0.164-0.861,0.407c-0.457,0.485-0.992,0.776-1.654,0.919c-1.726,0.37-2.054,1.202-0.939,2.651
					c0.923,1.2,1.586,2.484,1.698,3.978c0.126,1.66-0.156,3.229-2.009,3.849c-0.758,0.252-0.75,0.712-0.779,1.334
					c-0.053,1.108-0.161,2.22-0.34,3.313c-0.139,0.854-0.563,1.634-1.568,1.584c-1.005-0.05-1.233-0.824-1.396-1.718
					c-0.129-0.714,0.688-2.171-0.763-2c-1.255,0.147-0.76,1.515-0.533,2.344c0.581,2.135,0.459,4.305,0.438,6.46
					c-0.019,1.876-0.991,3.358-2.505,4.422c-0.937,0.658-1.479,1.394-1.392,2.608c0.063,0.873-0.107,1.824-0.644,2.513
					c-1.143,1.466-2.137,2.954-2.85,4.716c-0.619,1.531-1.876,1.375-2.716-0.128c-0.084-0.15-0.144-0.381-0.271-0.431
					c-1.948-0.762-2.096-2.261-1.478-4.163c-0.927,0.254-0.843,0.743-0.773,1.273c0.368,2.828,0.256,5.594-0.941,8.26
					c-0.277,0.618-0.302,1.369-0.351,2.065c-0.208,2.923-1.99,4.639-4.432,5.85c-0.946,0.469-1.972,0.613-2.818-0.104
					c-0.771-0.652-1.212-0.356-1.725,0.255c-0.223,0.264-0.506,0.494-0.801,0.677c-0.635,0.391-1.353,0.594-1.947,0.025
					c-0.545-0.522-0.323-1.209-0.029-1.8C274.334,272.312,274.664,271.843,275.001,271.289z M240.493,156.981
					c-1.102,0.348-1.758,0.596-2.435,0.763c-2.628,0.644-4.835-1.236-4.65-3.94c0.155-2.27,0.155-2.269-2.219-2.088
					c-0.168,0.013-0.433,0.045-0.498-0.045c-1.184-1.621-3.131-0.896-4.606-1.541c-1.077-0.471-2.061-0.559-3.207-0.369
					c-2.399,0.397-3.236-0.11-4.355-2.252c-0.212-0.407-0.46-0.831-0.795-1.132c-2.669-2.403-3.23-5.774-4.064-8.984
					c-0.296-1.138-0.565-2.236-1.854-2.078c-2.998,0.369-5.004-1.225-6.911-3.117c-0.556-0.551-1.084-1.052-1.935-1.05
					c-2.776,0.006-4.503-1.39-5.272-4.018c-0.295-1.009-0.886-1.532-1.989-1.645c-1.738-0.177-2.885-1.198-3.412-2.871
					c-0.263-0.836-0.572-1.672-0.7-2.532c-0.163-1.091-0.665-1.538-1.77-1.406c-1.075,0.128-2.29,0.069-2.984-0.72
					c-1.132-1.288-2.968-1.595-3.947-2.684c-1.582-1.759-3.338-2.937-5.402-3.991c-1.447-0.739-1.51-2.674-1.959-4.182
					c-0.124-0.415,0.017-1.101-0.608-1.11c-0.617-0.009-1.121,0.43-1.199,1.086c-0.151,1.28-0.691,2.337-1.594,3.243
					c-0.415,0.417-0.338,0.977-0.299,1.501c0.134,1.78-0.518,3.2-1.928,4.286c-0.561,0.431-1.02,0.885-1.146,1.677
					c-0.502,3.15-1.705,4.47-4.843,5.104c-2.174,0.439-3.84,1.901-5.853,2.666c-0.858,0.326-1.384,1.33-1.567,2.407
					c-0.509,2.99-3.728,5.379-6.812,4.991c-1.673-0.211-3.248,0.405-4.889,0.313c-0.374-0.021-0.754,0.182-0.819,0.546
					c-0.346,1.954-2.127,2.868-3.063,4.324c-2.457,3.826-6.746,3.318-10.15,4.851c-0.188,0.084-0.484,0.039-0.688-0.045
					c-1.506-0.622-2.009,0.192-2.252,1.494c-0.5,2.677-2.268,4.213-4.782,4.8c-1.577,0.368-3.096,1.151-4.794,0.93
					c-0.575-0.075-0.858,0.271-1.02,0.759c-0.641,1.936-2.208,2.659-4.019,2.951c-1.615,0.26-3.256,0.355-4.882,0.557
					c-1.442,0.18-2.212,1.324-2.315,3.621c-0.066,1.461,1.266,0.915,1.952,1.08c2.277,0.546,4.574,1.012,6.79,1.787
					c1.194,0.417,1.277,1.01,0.286,1.839c-1.19,0.996-2.551,0.571-3.87,0.611c-4.295,0.128-8.685-1.551-12.876,0.654
					c-0.098,0.052-0.23,0.038-0.345,0.058c-1.988,0.357-2.253,0.745-1.746,2.706c0.241,0.931,0.524,1.866-0.326,2.609
					c-0.877,0.768-1.697,0.314-2.566-0.167c-1.098-0.609-4.28,0.223-4.504,1.194c-0.313,1.363-0.972,2.622-1.017,4.073
					c-0.074,2.393-1.541,3.983-3.646,4.657c-1.696,0.543-2.243,1.413-2.144,3.042c0.082,1.344-0.11,2.551-1.989,2.19
					c-0.368-0.07-0.709,0.137-0.9,0.446c-0.947,1.539-2.552,2.244-4.039,3.001c-1.132,0.575-1.275,1.234-1.15,2.364
					c0.836,7.555,2.884,14.815,5.2,22.017c1.738,5.407,3.509,10.785,3.745,16.557c0.208,5.088-0.058,10.172,0.413,15.269
					c1.62,17.557,10.093,31.317,23.34,42.364c5.924,4.941,12.986,8.129,19.878,11.505c12.833,6.286,26.347,10.013,40.658,10.673
					c0.812,0.038,1.7,0.103,2.435-0.167c2.542-0.932,5.212-1.354,7.795-2.107c2.781-0.813,5.506-1.967,7.606-3.886
					c8.935-8.16,18.399-15.737,26.023-25.31c8.801-11.051,17.488-22.151,24.533-34.43c5.423-9.453,9.535-19.438,11.631-30.186
					c0.152-0.783,0.565-1.592-0.414-2.188c-0.452-0.275-1.372-0.219-1.195-1.017c0.154-0.69,0.987-0.771,1.59-0.915
					c0.731-0.175,1.499-0.251,2.254-0.271c2.06-0.054,3.751-0.88,5.088-2.404c1.238-1.41,2.327-2.925,3.186-4.613
					c2.814-5.532,3.906-11.532,4.509-17.596c0.641-6.456-0.957-12.691-2.699-18.849c-0.967-3.412-2.816-6.306-5.693-8.444
					c-2.045-1.52-3.643-1.372-5.75,0.05c-1.347,0.909-2.445,1.956-3.291,3.33c-0.551,0.895-1.484,1.299-2.474,1.546
					c-0.476,0.118-0.996,0.162-1.161-0.439C240.807,159.542,239.719,158.598,240.493,156.981z M196.302,105.734
					c2.336-0.597,4.866,0.124,7.235-0.837c5.388-2.186,7.691-6.812,9.201-11.913c1.022-3.456-1.298-6.288-4.926-6.449
					c-1.52-0.067-3.045-0.16-4.543,0.255c-0.322,0.089-0.734,0.271-0.97-0.085c-0.232-0.353,0.08-0.665,0.287-0.939
					c0.976-1.301,2.233-2.274,3.769-2.766c1.441-0.461,1.554-1.215,0.811-2.351c-0.16-0.245-0.298-0.505-0.434-0.765
					c-0.856-1.636-0.679-2.189,0.996-3.042c0.417-0.212,0.863-0.368,1.281-0.579c0.821-0.414,1.975-0.744,1.414-1.98
					c-0.492-1.088-1.563-1.445-2.681-0.956c-1.431,0.626-2.734,0.502-3.998-0.344c-0.501-0.336-0.889-0.485-1.293,0.17
					c-0.836,1.355-2.054,1.577-3.517,1.122c-1.584-0.492-1.424-1.816-1.525-3.016c-0.159-1.891-0.384-2.071-2.088-1.267
					c-1.033,0.487-1.991,0.673-2.982-0.001c-1.098-0.748-0.919-1.779-0.619-2.839c0.302-1.069-0.186-1.815-1.027-2.392
					c-0.774-0.531-1.494-0.405-2.277,0.089c-2.73,1.722-4.514,1.485-6.826-0.839c-0.715-0.718-1.434-1.444-2.562-1.281
					c-2.063,0.298-3.979,0.978-5.579,2.373c-0.853,0.744-1.336,1.672-1.021,2.812c0.333,1.204-0.207,1.826-1.192,2.392
					c-2.185,1.254-4.336,2.571-5.862,4.669c-0.549,0.755-1.354,1.157-2.253,1.226c-2.597,0.198-4.585,0.987-4.459,4.122
					c0.011,0.272-0.178,0.553-0.275,0.829c-0.78,2.211-0.542,3.328,1.287,4.786c1.241,0.99,2.399,2.029,3.443,3.23
					c2.019,2.323,4.215,4.262,7.512,4.776c4.516,0.704,8.646,2.865,13.109,3.874c1.537,0.347,3.121,1.205,3.714,2.733
					C189.051,104.675,192.488,105.379,196.302,105.734z M186.403,57.677c-0.024-0.77-0.414-1.455-1.122-1.955
					c-0.431-0.304-0.873-0.296-1.278,0.062c-1.188,1.049-2.18,2.248-2.786,3.731c-0.322,0.788,0.096,1.342,0.611,1.852
					c0.433,0.428,0.919,0.704,1.568,0.494C184.571,61.479,186.377,59.042,186.403,57.677z M79.323,68.034
					c0.128-1.705,0.314-3.133,0.317-4.562c0.002-1.034-1.369-2.029-2.155-1.604c-1.406,0.76-2.896,1.24-4.429,1.629
					c-0.743,0.189-1.243,0.726-0.904,1.396c0.46,0.912,1.075,2.191,1.854,2.384c0.959,0.238,0.804-1.281,1.222-1.986
					c0.029-0.049,0.038-0.111,0.059-0.165c0.297-0.769,0.797-1.368,1.669-1.297c0.968,0.079,1.331,0.802,1.466,1.698
					C78.538,66.297,78.288,67.183,79.323,68.034z M107.609,58.523c1.808-0.478,3.678-0.954,5.533-1.478
					c0.417-0.118,0.644-0.497,0.598-0.967c-0.094-0.953-2.843-2.391-3.516-1.759c-0.925,0.866-1.905,1.503-3.138,1.822
					c-0.775,0.201-0.868,0.896-0.723,1.574C106.493,58.32,106.951,58.552,107.609,58.523z M59.738,76.768
					c-0.044-0.148-0.047-0.327-0.112-0.353c-1.42-0.569-1.825-1.611-1.605-3.074c0.062-0.415-0.512-0.346-0.845-0.322
					c-0.777,0.056-1.504,0.306-2.037,0.875c-0.333,0.355,0.067,0.629,0.321,0.841c1.081,0.898,1.484,2.039,1.316,3.421
					c-0.083,0.689,0.32,1.041,0.947,0.854C58.833,78.681,59.246,77.659,59.738,76.768z M30.536,110.44
					c-1.207-0.392-1.52,0.06-1.553,1.25c-0.043,1.502,0.817,1.849,1.962,1.854c1.405,0.006,2.051-1.091,2.006-2.21
					C32.879,109.515,31.388,110.594,30.536,110.44z M43.202,86.095c2.232,0.73,2.24,0.726,3.454,2.917
					c0.333,0.602,0.819,0.975,1.39,0.508c0.646-0.527,1.51-1.245,0.96-2.17C47.784,85.295,45.861,84.897,43.202,86.095z
					 M93.057,62.969c0.442-0.122,1.064-0.266,1.669-0.465c0.608-0.201,1.362-0.434,1.225-1.225
					c-0.124-0.716-0.379-1.593-0.893-2.012c-0.668-0.547-0.981,0.496-1.469,0.803s-0.917,0.708-1.375,1.063
					c-0.376,0.291-0.773,0.595-0.598,1.14C91.806,62.862,92.309,62.998,93.057,62.969z"/>
				<path fill-rule="evenodd" clip-rule="evenodd" fill="none" d="M240.493,156.981c-0.774,1.616,0.313,2.561,0.629,3.704
					c0.165,0.602,0.686,0.558,1.161,0.439c0.989-0.247,1.923-0.651,2.474-1.546c0.846-1.374,1.944-2.421,3.291-3.33
					c2.107-1.422,3.705-1.57,5.75-0.05c2.877,2.139,4.727,5.032,5.693,8.444c1.742,6.158,3.34,12.393,2.699,18.849
					c-0.603,6.063-1.694,12.063-4.509,17.596c-0.858,1.688-1.947,3.203-3.186,4.613c-1.337,1.524-3.028,2.351-5.088,2.404
					c-0.755,0.02-1.522,0.096-2.254,0.271c-0.603,0.144-1.436,0.225-1.59,0.915c-0.177,0.798,0.743,0.741,1.195,1.017
					c0.979,0.597,0.566,1.405,0.414,2.188c-2.096,10.748-6.208,20.732-11.631,30.186c-7.045,12.278-15.732,23.379-24.533,34.43
					c-7.624,9.572-17.089,17.149-26.023,25.31c-2.101,1.919-4.825,3.073-7.606,3.886c-2.583,0.754-5.253,1.176-7.795,2.107
					c-0.734,0.27-1.623,0.205-2.435,0.167c-14.312-0.66-27.825-4.387-40.658-10.673c-6.892-3.376-13.954-6.563-19.878-11.505
					c-13.247-11.047-21.721-24.808-23.34-42.364c-0.471-5.097-0.205-10.181-0.413-15.269c-0.236-5.771-2.007-11.149-3.745-16.557
					c-2.315-7.201-4.364-14.462-5.2-22.017c-0.125-1.13,0.018-1.789,1.15-2.364c1.487-0.757,3.092-1.462,4.039-3.001
					c0.191-0.31,0.533-0.517,0.9-0.446c1.878,0.36,2.07-0.847,1.989-2.19c-0.099-1.629,0.448-2.5,2.144-3.042
					c2.104-0.673,3.571-2.264,3.646-4.657c0.045-1.451,0.704-2.71,1.017-4.073c0.224-0.972,3.406-1.804,4.504-1.194
					c0.869,0.482,1.689,0.935,2.566,0.167c0.85-0.744,0.567-1.679,0.326-2.609c-0.508-1.961-0.242-2.348,1.746-2.706
					c0.115-0.021,0.247-0.006,0.345-0.058c4.191-2.206,8.581-0.526,12.876-0.654c1.319-0.04,2.68,0.384,3.87-0.611
					c0.992-0.829,0.909-1.422-0.286-1.839c-2.216-0.774-4.513-1.24-6.79-1.787c-0.687-0.165-2.018,0.382-1.952-1.08
					c0.103-2.297,0.873-3.441,2.315-3.621c1.625-0.202,3.267-0.296,4.882-0.557c1.811-0.292,3.378-1.016,4.019-2.951
					c0.161-0.488,0.445-0.834,1.02-0.759c1.698,0.222,3.217-0.562,4.794-0.93c2.515-0.587,4.282-2.124,4.782-4.8
					c0.243-1.301,0.746-2.116,2.252-1.494c0.205,0.084,0.501,0.13,0.688,0.045c3.404-1.533,7.694-1.025,10.15-4.851
					c0.935-1.457,2.717-2.37,3.063-4.324c0.064-0.364,0.445-0.567,0.819-0.546c1.641,0.092,3.216-0.524,4.889-0.313
					c3.084,0.388,6.303-2.001,6.812-4.991c0.184-1.077,0.709-2.082,1.567-2.407c2.013-0.765,3.679-2.227,5.853-2.666
					c3.138-0.634,4.341-1.954,4.843-5.104c0.126-0.792,0.585-1.246,1.146-1.677c1.41-1.086,2.062-2.506,1.928-4.286
					c-0.039-0.524-0.116-1.085,0.299-1.501c0.902-0.905,1.442-1.962,1.594-3.243c0.078-0.656,0.582-1.095,1.199-1.086
					c0.625,0.009,0.484,0.695,0.608,1.11c0.449,1.508,0.512,3.442,1.959,4.182c2.064,1.054,3.82,2.231,5.402,3.991
					c0.979,1.089,2.815,1.396,3.947,2.684c0.694,0.79,1.909,0.849,2.984,0.72c1.104-0.132,1.606,0.314,1.77,1.406
					c0.128,0.86,0.438,1.696,0.7,2.532c0.527,1.673,1.674,2.694,3.412,2.871c1.104,0.113,1.694,0.636,1.989,1.645
					c0.77,2.628,2.496,4.023,5.272,4.018c0.851-0.002,1.379,0.5,1.935,1.05c1.907,1.892,3.913,3.486,6.911,3.117
					c1.289-0.158,1.559,0.94,1.854,2.078c0.834,3.21,1.396,6.581,4.064,8.984c0.335,0.301,0.583,0.725,0.795,1.132
					c1.119,2.142,1.956,2.649,4.355,2.252c1.146-0.189,2.13-0.102,3.207,0.369c1.476,0.645,3.423-0.08,4.606,1.541
					c0.065,0.09,0.33,0.058,0.498,0.045c2.374-0.181,2.374-0.182,2.219,2.088c-0.185,2.704,2.022,4.584,4.65,3.94
					C238.735,157.578,239.392,157.33,240.493,156.981z M172.669,184.937c2.157,0.173,4.239-0.198,6.331-0.451
					c7.591-0.918,13.492-4.614,17.952-10.781c2.09-2.892,4.206-5.797,7.439-7.59c0.297-0.165,0.709-0.333,0.671-0.736
					c-0.049-0.517-0.575-0.634-0.939-0.604c-3.023,0.245-5.123-1.654-7.435-3.102c-9.975-6.252-20.129-5.776-30.185-0.394
					c-5.649,3.023-9.4,7.99-12.192,13.685c-0.434,0.885-1.147,1.817-1.095,2.689c0.031,0.512,1.348,0.91,2.034,1.427
					C160.418,182.979,166.154,185.173,172.669,184.937z M115.784,252.978c1.015,1.07,1.91,1.908,2.683,2.847
					c4.237,5.136,9.12,9.536,14.555,13.391c5.748,4.078,11.944,6.686,19.052,5.576c13.79-2.153,25.608-8.068,34.335-19.279
					c4.418-5.677,7.887-11.896,9.769-18.911c0.499-1.862,0.428-3.692-0.026-5.552c-0.422-1.727-1.529-2.547-3.229-2.715
					c-2.057-0.203-3.729,0.646-5.365,1.781c-1.64,1.139-2.857,2.8-4.545,3.806c-2.702,1.609-5.48,3.094-8.187,4.707
					c-10.383,6.189-21.372,10.898-33.292,13.207c-6.657,1.289-13.408,0.979-20.137,0.965
					C119.599,252.796,117.791,252.618,115.784,252.978z M125.928,182.469c-2.045-0.838-3.244-2.281-4.569-3.572
					c-0.921-0.898-1.807-1.825-2.92-2.512c-7.228-4.456-14.773-5.171-22.689-2.042c-5.469,2.161-9.431,5.958-12.308,11.013
					c-0.811,1.424-0.799,2.528,0.539,3.669c1.515,1.292,2.967,2.651,4.667,3.705c7.625,4.726,15.744,4.729,24.044,2.372
					c4.034-1.146,6.871-3.898,8.913-7.491C122.692,185.694,123.575,183.631,125.928,182.469z M153.417,205.338
					c2.519,1.625,4.52,3.425,5.177,6.339c0.802,3.554,0.004,4.881-3.538,5.567c-3.318,0.643-6.389,1.691-9.015,4.009
					c-1.188,1.048-2.827,1.578-4.599,1.233c-2.432-0.473-4.895-0.384-7.343-0.072c-2.765,0.352-4.34-1.175-4.006-3.951
					c0.237-1.959,0.949-3.758,2.125-5.328c1.011-1.351,1.755-2.791,2.481-4.325c3.61-7.629,2.26-15.054-0.489-22.492
					c-0.481-1.302-1.553-1.12-2.502-0.893c-1.215,0.292-0.793,1.214-0.537,1.99c0.201,0.61,0.482,1.196,0.666,1.812
					c1.808,6.07,2.552,12.176-0.011,18.206c-0.932,2.193-2.282,4.212-3.482,6.287c-0.892,1.541-1.525,3.159-1.712,4.936
					c-0.16,1.504,0.257,2.856,1.496,3.732c1.941,1.373,4.135,2.173,6.536,2.293c0.518,0.026,1.11,0.051,1.398-0.515
					c0.538-1.059,1.545-1.121,2.431-0.933c2.853,0.605,5.722,0.1,8.573,0.303c1.307,0.094,2.214-0.333,2.936-1.452
					c1.263-1.956,3.07-3.157,5.389-3.61c1.375-0.269,2.752-0.591,4.074-1.046c1.307-0.45,2.408-1.261,2.779-2.706
					c0.889-3.459-2.889-9.163-6.422-9.687C155.089,204.927,154.317,204.803,153.417,205.338z M198.62,143.735
					c0.234,0,0.474,0.031,0.701-0.006c0.538-0.088,1.356,0.185,1.469-0.563c0.088-0.578-0.69-0.739-1.134-0.931
					c-2.753-1.188-5.665-1.865-8.614-2.264c-8.792-1.191-17.501-0.552-26.141,1.379c-4.18,0.935-7.9,2.883-11.482,5.119
					c-1.366,0.853-1.629,2.416-1.605,3.859c0.015,0.917,0.686,1.8,1.709,2.019c1.499,0.321,2.991,0.407,4.415-0.451
					c3.906-2.354,7.827-4.681,11.766-6.98c1.657-0.967,3.213-2.188,5.214-2.413c3.782-0.425,7.557-0.576,11.378-0.366
					C190.458,142.367,194.512,143.213,198.62,143.735z M245.202,195.133c1.197,0.342,2.219,0.074,2.864,1.157
					c1.467,2.463,4.039,2.683,6.137,0.674c1.252-1.201,2.017-2.729,2.616-4.325c1.866-4.972,2.363-10.108,1.821-15.373
					c-0.407-3.96-1.431-7.716-3.638-11.07c-1.86-2.828-4.564-3.798-7.601-2.761c-0.658,0.225-1.82,0.408-1.486,1.295
					c0.275,0.73,1.265,0.192,1.852-0.135c1.143-0.638,2.126-0.441,3.06,0.381c0.709,0.626,1.276,1.366,1.758,2.178
					c4.133,6.98,4.293,14.44,2.637,22.105c-0.483,2.241-1.207,4.407-2.474,6.352c-0.641,0.982-1.22,1.349-2.061,0.079
					C249.439,193.805,247.555,193.568,245.202,195.133z M159.424,281.636c7.319,0.04,9.511-0.522,14.874-3.672
					c3.621-2.127,6.567-5.052,9.481-8.009c0.369-0.375,1.225-0.881,0.226-1.513c-1.306-0.826-5.353-0.178-6.392,1.077
					c-1.386,1.675-2.883,3.247-4.543,4.63c-4.796,3.995-9.931,7.078-16.605,5.787c-0.892-0.173-1.86,0.02-2.79,0.09
					c-0.335,0.025-0.779,0.117-0.843,0.506c-0.093,0.567,0.455,0.616,0.817,0.713C155.658,281.781,157.722,281.53,159.424,281.636z
					 M137.771,247.171c1.15-0.03,2.19-0.021,3.124-0.669c6.304-4.383,13.415-6.131,20.979-6.425c0.74-0.028,2.041,0.312,2.036-0.684
					c-0.004-0.855-1.318-0.698-2.085-0.694c-8.667,0.034-16.961,1.641-24.563,6.015c-0.799,0.46-2.278,0.719-1.944,1.873
					C135.589,247.525,136.98,247.014,137.771,247.171z"/>
				<path fill-rule="evenodd" clip-rule="evenodd" fill="none" d="M196.302,105.734c-3.813-0.355-7.251-1.059-8.851-5.183
					c-0.593-1.528-2.177-2.386-3.714-2.733c-4.463-1.009-8.594-3.17-13.109-3.874c-3.297-0.514-5.493-2.453-7.512-4.776
					c-1.044-1.201-2.202-2.24-3.443-3.23c-1.829-1.458-2.066-2.575-1.287-4.786c0.097-0.276,0.286-0.556,0.275-0.829
					c-0.126-3.135,1.862-3.924,4.459-4.122c0.9-0.068,1.705-0.471,2.253-1.226c1.526-2.098,3.678-3.415,5.862-4.669
					c0.985-0.566,1.525-1.188,1.192-2.392c-0.314-1.14,0.169-2.068,1.021-2.812c1.6-1.395,3.516-2.075,5.579-2.373
					c1.128-0.163,1.847,0.563,2.562,1.281c2.313,2.324,4.096,2.561,6.826,0.839c0.783-0.494,1.503-0.621,2.277-0.089
					c0.842,0.577,1.329,1.323,1.027,2.392c-0.3,1.06-0.479,2.091,0.619,2.839c0.991,0.675,1.949,0.489,2.982,0.001
					c1.704-0.804,1.929-0.624,2.088,1.267c0.102,1.2-0.059,2.524,1.525,3.016c1.463,0.455,2.681,0.233,3.517-1.122
					c0.404-0.655,0.792-0.506,1.293-0.17c1.264,0.847,2.567,0.97,3.998,0.344c1.118-0.489,2.188-0.132,2.681,0.956
					c0.561,1.237-0.593,1.567-1.414,1.98c-0.418,0.21-0.864,0.366-1.281,0.579c-1.675,0.853-1.853,1.406-0.996,3.042
					c0.136,0.26,0.273,0.52,0.434,0.765c0.743,1.136,0.631,1.89-0.811,2.351c-1.535,0.492-2.793,1.465-3.769,2.766
					c-0.207,0.275-0.52,0.587-0.287,0.939c0.235,0.356,0.647,0.174,0.97,0.085c1.498-0.415,3.023-0.322,4.543-0.255
					c3.628,0.161,5.948,2.993,4.926,6.449c-1.51,5.101-3.813,9.727-9.201,11.913C201.168,105.858,198.638,105.138,196.302,105.734z"
					/>
				<path fill-rule="evenodd" clip-rule="evenodd" fill="none" d="M186.403,57.677c-0.026,1.366-1.832,3.803-3.007,4.184
					c-0.649,0.21-1.136-0.066-1.568-0.494c-0.516-0.509-0.934-1.063-0.611-1.852c0.606-1.484,1.598-2.682,2.786-3.731
					c0.405-0.358,0.848-0.366,1.278-0.062C185.989,56.222,186.379,56.907,186.403,57.677z"/>
				<path fill-rule="evenodd" clip-rule="evenodd" fill="none" d="M79.323,68.034c-1.036-0.852-0.785-1.737-0.902-2.507
					c-0.136-0.896-0.499-1.62-1.466-1.698c-0.872-0.071-1.372,0.528-1.669,1.297c-0.021,0.054-0.029,0.116-0.059,0.165
					c-0.418,0.706-0.263,2.225-1.222,1.986c-0.779-0.193-1.393-1.472-1.854-2.384c-0.339-0.67,0.161-1.208,0.904-1.396
					c1.533-0.39,3.023-0.869,4.429-1.629c0.786-0.425,2.157,0.571,2.155,1.604C79.637,64.901,79.452,66.33,79.323,68.034z"/>
				<path fill-rule="evenodd" clip-rule="evenodd" fill="none" d="M107.609,58.523c-0.658,0.028-1.116-0.203-1.245-0.807
					c-0.145-0.678-0.053-1.374,0.723-1.574c1.232-0.319,2.213-0.956,3.138-1.822c0.673-0.631,3.422,0.806,3.516,1.759
					c0.046,0.47-0.18,0.849-0.598,0.967C111.287,57.57,109.417,58.045,107.609,58.523z"/>
				<path fill-rule="evenodd" clip-rule="evenodd" fill="none" d="M59.738,76.768c-0.492,0.891-0.906,1.913-2.015,2.243
					c-0.627,0.187-1.031-0.165-0.947-0.854c0.167-1.382-0.236-2.523-1.316-3.421c-0.254-0.211-0.654-0.486-0.321-0.841
					c0.533-0.569,1.26-0.819,2.037-0.875c0.333-0.024,0.907-0.093,0.845,0.322c-0.22,1.463,0.185,2.505,1.605,3.074
					C59.691,76.441,59.694,76.62,59.738,76.768z"/>
				<path fill-rule="evenodd" clip-rule="evenodd" fill="none" d="M30.536,110.44c0.853,0.154,2.343-0.925,2.416,0.893
					c0.044,1.119-0.602,2.216-2.006,2.21c-1.145-0.004-2.005-0.351-1.962-1.854C29.016,110.5,29.329,110.048,30.536,110.44z"/>
				<path fill-rule="evenodd" clip-rule="evenodd" fill="none" d="M43.202,86.095c2.659-1.198,4.582-0.8,5.804,1.255
					c0.549,0.925-0.315,1.643-0.96,2.17c-0.571,0.467-1.056,0.094-1.39-0.508C45.442,86.821,45.435,86.826,43.202,86.095z"/>
				<path fill-rule="evenodd" clip-rule="evenodd" fill="none" d="M93.057,62.969c-0.748,0.029-1.25-0.106-1.441-0.697
					c-0.176-0.544,0.222-0.849,0.598-1.14c0.458-0.354,0.887-0.755,1.375-1.063s0.801-1.35,1.469-0.803
					c0.513,0.419,0.769,1.296,0.893,2.012c0.137,0.791-0.617,1.024-1.225,1.225C94.121,62.703,93.499,62.847,93.057,62.969z"/>
				<path fill-rule="evenodd" clip-rule="evenodd" d="M172.669,184.937c-6.515,0.236-12.25-1.958-17.418-5.857
					c-0.686-0.518-2.003-0.915-2.034-1.427c-0.052-0.872,0.661-1.804,1.095-2.689c2.792-5.695,6.543-10.661,12.192-13.685
					c10.056-5.383,20.21-5.859,30.185,0.394c2.312,1.448,4.411,3.347,7.435,3.102c0.364-0.029,0.891,0.087,0.939,0.604
					c0.038,0.403-0.374,0.572-0.671,0.736c-3.233,1.793-5.35,4.698-7.439,7.59c-4.46,6.167-10.361,9.863-17.952,10.781
					C176.908,184.738,174.826,185.109,172.669,184.937z M181.734,158.406c-1.863-0.027-3.575,0.62-5.332,1.06
					c-1.445,0.362-1.308,0.877-0.582,2.04c4.04,6.472,5.626,13.27,2.227,20.573c-0.144,0.309-0.47,0.622-0.199,0.947
					c0.266,0.32,0.668,0.121,0.982,0.001c3.285-1.256,6.495-2.642,9.088-5.133c3.587-3.448,5.971-7.963,9.88-11.124
					c0.548-0.443,0.585-0.767-0.145-1.116c-2.279-1.089-4.243-2.694-6.384-4.01C188.347,159.845,185.18,158.689,181.734,158.406z
					 M166.773,167.72c-1.266,0-2.178,1.005-2.196,2.426c-0.018,1.459,0.776,2.108,2.165,2.137c1.582,0.032,2.604-0.849,2.563-2.191
					C169.265,168.773,168.141,167.72,166.773,167.72z"/>
				<path fill-rule="evenodd" clip-rule="evenodd" d="M115.784,252.978c2.007-0.359,3.815-0.182,5.612-0.178
					c6.729,0.014,13.48,0.324,20.137-0.965c11.92-2.309,22.909-7.018,33.292-13.207c2.706-1.613,5.484-3.098,8.187-4.707
					c1.688-1.006,2.905-2.667,4.545-3.806c1.636-1.136,3.309-1.984,5.365-1.781c1.7,0.168,2.808,0.988,3.229,2.715
					c0.454,1.859,0.525,3.689,0.026,5.552c-1.882,7.016-5.351,13.234-9.769,18.911c-8.728,11.211-20.546,17.126-34.335,19.279
					c-7.108,1.109-13.304-1.498-19.052-5.576c-5.435-3.854-10.318-8.255-14.555-13.391
					C117.693,254.886,116.798,254.048,115.784,252.978z M151.792,261.672c0.1-0.639,0.469-0.759,0.775-0.895
					c6.377-2.821,12.785-5.579,18.273-10.023c2.263-1.831,4.94-3.143,6.873-5.382c2.176-2.522,4.792-4.597,7.049-7.025
					c1.098-1.18,2.198-2.088,3.89-1.964c1.046,0.077,1.171-0.482,0.927-1.314c-0.147-0.505-0.276-1.016-0.424-1.521
					c-0.33-1.124-0.977-1.457-1.927-0.661c-3.072,2.574-6.833,4.025-10.114,6.277c-4.064,2.79-8.632,4.674-13.12,6.69
					c-11.249,5.052-22.982,7.866-35.346,7.795c-1.463-0.008-1.99,0.441-1.906,1.904c0.223,3.861,1.758,7.187,4.542,9.722
					c3.957,3.604,8.384,6.579,13.598,8.153c1.966,0.594,3.939,1.001,6.043,0.702c6.292-0.893,12.044-3.214,17.626-6.165
					c8.911-4.714,14.951-12.17,20.04-20.56c1.181-1.945,2.032-4.074,2.721-6.257c0.396-1.254-0.254-2.218-1.028-2.967
					c-0.475-0.46-1.085,0.236-1.465,0.622c-2.564,2.608-5.133,5.147-8.052,7.435c-3.339,2.616-6.609,5.319-10.112,7.724
					c-4.41,3.026-9.289,5.147-14.148,7.306C155.009,261.934,153.476,262.041,151.792,261.672z"/>
				<path fill-rule="evenodd" clip-rule="evenodd" d="M125.928,182.469c-2.354,1.162-3.236,3.226-4.324,5.142
					c-2.042,3.593-4.879,6.345-8.913,7.491c-8.3,2.357-16.418,2.354-24.044-2.372c-1.7-1.054-3.152-2.413-4.667-3.705
					c-1.338-1.141-1.349-2.245-0.539-3.669c2.877-5.055,6.839-8.852,12.308-11.013c7.916-3.129,15.461-2.413,22.689,2.042
					c1.113,0.687,2,1.614,2.92,2.512C122.685,180.188,123.883,181.631,125.928,182.469z M105.555,195.24
					c3.846-0.729,7.157-2.315,9.542-5.621c1.567-2.171,2.579-4.724,4.574-6.598c0.315-0.296,0.516-0.683,0.004-1.014
					c-2.37-1.538-3.842-4.116-6.323-5.509c-2.804-1.574-5.621-3.141-9.043-2.718c-1.207,0.149-1.41,0.486-0.833,1.669
					c2.896,5.933,4.029,12.026,1.193,18.35C104.258,194.713,104.345,195.289,105.555,195.24z M95.744,179.498
					c-1.203,0.111-1.812,0.969-1.82,2.313c-0.01,1.47,0.849,2.072,2.221,2.068c1.444-0.003,2.373-0.922,2.305-2.245
					C98.383,180.349,97.341,179.449,95.744,179.498z"/>
				<path fill-rule="evenodd" clip-rule="evenodd" d="M153.417,205.338c0.9-0.535,1.672-0.411,2.403-0.303
					c3.534,0.523,7.312,6.228,6.422,9.687c-0.371,1.445-1.472,2.256-2.779,2.706c-1.322,0.455-2.699,0.777-4.074,1.046
					c-2.318,0.453-4.126,1.654-5.389,3.61c-0.722,1.119-1.629,1.546-2.936,1.452c-2.851-0.203-5.72,0.303-8.573-0.303
					c-0.886-0.188-1.893-0.126-2.431,0.933c-0.288,0.565-0.88,0.541-1.398,0.515c-2.4-0.12-4.594-0.92-6.536-2.293
					c-1.239-0.876-1.656-2.229-1.496-3.732c0.188-1.776,0.821-3.395,1.712-4.936c1.2-2.075,2.55-4.094,3.482-6.287
					c2.563-6.03,1.819-12.136,0.011-18.206c-0.184-0.615-0.464-1.201-0.666-1.812c-0.256-0.776-0.678-1.698,0.537-1.99
					c0.949-0.228,2.021-0.409,2.502,0.893c2.75,7.438,4.1,14.863,0.489,22.492c-0.727,1.534-1.47,2.975-2.481,4.325
					c-1.175,1.57-1.888,3.369-2.125,5.328c-0.334,2.776,1.241,4.303,4.006,3.951c2.448-0.312,4.911-0.4,7.343,0.072
					c1.772,0.345,3.412-0.186,4.599-1.233c2.625-2.317,5.696-3.366,9.015-4.009c3.542-0.687,4.339-2.014,3.538-5.567
					C157.937,208.763,155.936,206.963,153.417,205.338z"/>
				<path fill-rule="evenodd" clip-rule="evenodd" d="M198.62,143.735c-4.108-0.522-8.162-1.368-12.325-1.598
					c-3.821-0.21-7.596-0.059-11.378,0.366c-2.001,0.225-3.557,1.446-5.214,2.413c-3.938,2.299-7.86,4.626-11.766,6.98
					c-1.424,0.858-2.916,0.772-4.415,0.451c-1.023-0.219-1.694-1.102-1.709-2.019c-0.023-1.443,0.24-3.006,1.605-3.859
					c3.583-2.236,7.303-4.185,11.482-5.119c8.64-1.931,17.349-2.57,26.141-1.379c2.949,0.399,5.861,1.076,8.614,2.264
					c0.443,0.191,1.222,0.353,1.134,0.931c-0.112,0.748-0.931,0.476-1.469,0.563C199.094,143.767,198.854,143.735,198.62,143.735z"
					/>
				<path fill-rule="evenodd" clip-rule="evenodd" d="M245.202,195.133c2.353-1.564,4.237-1.328,5.485,0.557
					c0.841,1.27,1.42,0.903,2.061-0.079c1.267-1.944,1.99-4.11,2.474-6.352c1.656-7.665,1.496-15.125-2.637-22.105
					c-0.481-0.812-1.049-1.552-1.758-2.178c-0.934-0.823-1.917-1.019-3.06-0.381c-0.587,0.327-1.576,0.866-1.852,0.135
					c-0.334-0.887,0.828-1.07,1.486-1.295c3.036-1.037,5.74-0.067,7.601,2.761c2.207,3.354,3.23,7.109,3.638,11.07
					c0.542,5.265,0.045,10.401-1.821,15.373c-0.6,1.597-1.364,3.124-2.616,4.325c-2.098,2.009-4.67,1.789-6.137-0.674
					C247.421,195.207,246.399,195.475,245.202,195.133z"/>
				<path fill-rule="evenodd" clip-rule="evenodd" d="M159.424,281.636c-1.703-0.105-3.767,0.146-5.775-0.391
					c-0.362-0.097-0.911-0.146-0.817-0.713c0.063-0.389,0.507-0.48,0.843-0.506c0.93-0.07,1.898-0.263,2.79-0.09
					c6.675,1.291,11.81-1.792,16.605-5.787c1.66-1.383,3.157-2.955,4.543-4.63c1.039-1.255,5.086-1.903,6.392-1.077
					c0.999,0.632,0.144,1.138-0.226,1.513c-2.914,2.957-5.86,5.882-9.481,8.009C168.936,281.113,166.743,281.676,159.424,281.636z"
					/>
				<path fill-rule="evenodd" clip-rule="evenodd" d="M137.771,247.171c-0.791-0.157-2.182,0.354-2.453-0.584
					c-0.334-1.154,1.145-1.413,1.944-1.873c7.602-4.374,15.896-5.98,24.563-6.015c0.767-0.004,2.081-0.161,2.085,0.694
					c0.004,0.995-1.296,0.655-2.036,0.684c-7.564,0.294-14.675,2.042-20.979,6.425C139.961,247.15,138.921,247.141,137.771,247.171z
					"/>
				<path fill-rule="evenodd" clip-rule="evenodd" fill="none" d="M181.734,158.406c3.445,0.283,6.612,1.439,9.535,3.237
					c2.141,1.316,4.104,2.921,6.384,4.01c0.729,0.349,0.692,0.672,0.145,1.116c-3.909,3.161-6.293,7.676-9.88,11.124
					c-2.593,2.492-5.803,3.877-9.088,5.133c-0.314,0.12-0.717,0.319-0.982-0.001c-0.271-0.325,0.056-0.639,0.199-0.947
					c3.399-7.303,1.813-14.101-2.227-20.573c-0.726-1.162-0.863-1.678,0.582-2.04C178.159,159.026,179.871,158.379,181.734,158.406z
					"/>
				<path fill-rule="evenodd" clip-rule="evenodd" fill="none" d="M166.773,167.72c1.367,0,2.491,1.053,2.531,2.371
					c0.041,1.343-0.98,2.224-2.563,2.191c-1.389-0.028-2.183-0.678-2.165-2.137C164.595,168.726,165.508,167.721,166.773,167.72z"/>
				<path fill-rule="evenodd" clip-rule="evenodd" fill="none" d="M151.792,261.672c1.684,0.369,3.217,0.262,4.715-0.403
					c4.859-2.158,9.738-4.279,14.148-7.306c3.503-2.404,6.773-5.107,10.112-7.724c2.919-2.287,5.487-4.826,8.052-7.435
					c0.38-0.386,0.99-1.082,1.465-0.622c0.774,0.749,1.424,1.713,1.028,2.967c-0.688,2.183-1.54,4.312-2.721,6.257
					c-5.089,8.39-11.129,15.846-20.04,20.56c-5.582,2.951-11.335,5.272-17.626,6.165c-2.104,0.299-4.077-0.108-6.043-0.702
					c-5.214-1.574-9.641-4.55-13.598-8.153c-2.784-2.535-4.319-5.86-4.542-9.722c-0.084-1.463,0.443-1.912,1.906-1.904
					c12.364,0.071,24.097-2.743,35.346-7.795c4.488-2.017,9.056-3.9,13.12-6.69c3.281-2.252,7.042-3.703,10.114-6.277
					c0.95-0.796,1.597-0.463,1.927,0.661c0.147,0.505,0.276,1.016,0.424,1.521c0.244,0.832,0.119,1.392-0.927,1.314
					c-1.691-0.124-2.792,0.784-3.89,1.964c-2.257,2.429-4.873,4.503-7.049,7.025c-1.933,2.239-4.61,3.551-6.873,5.382
					c-5.488,4.444-11.896,7.202-18.273,10.023C152.261,260.913,151.892,261.033,151.792,261.672z"/>
				<path fill-rule="evenodd" clip-rule="evenodd" fill="none" d="M105.555,195.24c-1.21,0.049-1.296-0.527-0.887-1.44
					c2.836-6.323,1.703-12.417-1.193-18.35c-0.577-1.183-0.373-1.52,0.833-1.669c3.422-0.423,6.239,1.144,9.043,2.718
					c2.481,1.393,3.953,3.971,6.323,5.509c0.511,0.331,0.311,0.718-0.004,1.014c-1.995,1.874-3.006,4.427-4.574,6.598
					C112.711,192.925,109.4,194.511,105.555,195.24z"/>
				<path fill-rule="evenodd" clip-rule="evenodd" fill="none" d="M95.744,179.498c1.597-0.049,2.639,0.851,2.706,2.137
					c0.068,1.323-0.86,2.242-2.305,2.245c-1.372,0.004-2.231-0.599-2.221-2.068C93.932,180.467,94.542,179.609,95.744,179.498z"/>
			</g>
		</g>
	</g>
</g>
<g id="Layer_2">
	<polygon points="200.166,62.669 170.667,59.834 154,81 175.5,103 199,110.5 217.5,93 210,74 	"/>
</g>
</svg>
