<?xml version="1.0" encoding="UTF-8"?>
<svg width="634px" height="569px" viewBox="0 0 634 569" version="1.1" xmlns="http://www.w3.org/2000/svg" xmlns:xlink="http://www.w3.org/1999/xlink">
    <!-- Generator: Sketch 55.1 (78136) - https://sketchapp.com -->
    <title>sketch</title>
    <desc>Created with Sketch.</desc>
    <g id="Page-1" stroke="none" stroke-width="1" fill="none" fill-rule="evenodd">
        <g id="sketch" fill-rule="nonzero">
            <g id="b-link" fill="#FDB300">
                <polygon id="b" points="138.2875 18.7125 316.9125 0 495.55 18.7125 633.85 202.675 316.925 568.3875 0 202.675"></polygon>
            </g>
            <g id="c-link" transform="translate(0.000000, 204.887500)" fill="#EA6C00">
                <polygon id="c" points="128.375 0 316.925 363.5 0 0"></polygon>
            </g>
            <g id="d-link" transform="translate(471.375000, 392.387500) scale(-1, 1) translate(-471.375000, -392.387500) translate(308.875000, 204.887500)" fill="#EA6C00">
                <polygon id="d" points="128.3625 0 316.925 363.5 0 0"></polygon>
            </g>
            <g id="e-link" transform="translate(125.500000, 204.887500)" fill="#FDAD00">
                <polygon id="e" points="0 0 376.35 0 188.175 363.5"></polygon>
            </g>
            <g id="f-link" transform="translate(125.500000, 0.000000)" fill="#FDD231">
                <polygon id="f" points="184.875 0 9.725 18.9125 0 204.8875"></polygon>
            </g>
            <g id="g-link" transform="translate(408.000000, 106.250000) scale(-1, 1) translate(-408.000000, -106.250000) translate(314.250000, 0.000000)" fill="#FDD231">
                <polygon id="g" points="184.875 0 9.725 18.9125 0 204.8875"></polygon>
            </g>
            <g id="h-link" transform="translate(558.875000, 113.575000) scale(-1, 1) translate(-558.875000, -113.575000) translate(483.875000, 19.825000)" fill="#FDAD00">
                <polygon id="h" points="0 185.0625 138.6625 0 128.7125 185.0625"></polygon>
            </g>
            <g id="Group" transform="translate(0.000000, 12.500000)" fill="#FDAD00">
                <g id="i-link" transform="translate(0.000000, 7.325000)">
                    <polygon id="i" points="0 185.0625 138.65 0 128.7 185.0625"></polygon>
                </g>
            </g>
            <g id="Group" transform="translate(125.000000, 0.000000)" fill="#FEEEB7">
                <g id="j-link" transform="translate(0.500000, 0.000000)">
                    <polygon id="j" points="188.175 0 0 204.8875 376.35 204.8875"></polygon>
                </g>
            </g>
        </g>
    </g>
</svg>