<svg width="159" height="159" viewBox="0 0 159 159" fill="none" xmlns="http://www.w3.org/2000/svg">
<path d="M17.5552 69.3134L29.0194 61.8159C29.1939 61.6852 29.4551 61.6414 29.6731 61.6414C30.5883 61.6414 31.7652 62.6004 31.7652 63.8211C31.7652 64.3444 31.5038 64.8239 31.1115 65.085L21.9575 71.1006L31.1115 77.1159C31.5041 77.3339 31.7652 77.8134 31.7652 78.3799C31.7652 79.6006 30.5883 80.5158 29.6731 80.5158C29.4551 80.5158 29.1936 80.472 29.0194 80.3413L17.5552 72.8444C16.9015 72.4087 16.5959 71.6674 16.5959 71.101C16.5959 70.5342 16.9015 69.7498 17.5552 69.3134Z" fill="#5C5C5C" fill-opacity="0.78"/>
<path d="M56.0003 51.2673C56.0003 51.529 55.9568 51.747 55.8258 51.9647L39.8283 83.8728C39.5665 84.3961 39 84.701 38.3898 84.701C37.3871 84.701 36.6896 83.8728 36.6896 83.0884C36.6896 82.8704 36.7334 82.6524 36.8203 82.4347L52.8613 50.3959C53.1231 49.8291 53.6026 49.6114 54.169 49.6114C55.0413 49.6111 56.0003 50.2648 56.0003 51.2673Z" fill="#5C5C5C" fill-opacity="0.78"/>
<path d="M75.0915 72.8444L63.6271 80.3419C63.4525 80.4726 63.2348 80.5164 63.0168 80.5164C62.0579 80.5164 60.9247 79.6012 60.9247 78.3805C60.9247 77.814 61.1862 77.3346 61.5349 77.1166L70.7324 71.1013L61.5349 65.0857C61.1862 64.8242 60.9247 64.3447 60.9247 63.8217C60.9247 62.601 62.0579 61.642 63.0168 61.642C63.2348 61.642 63.4525 61.6858 63.6271 61.8165L75.0915 69.3141C75.7452 69.7501 76.0505 70.5348 76.0505 71.1016C76.0505 71.6674 75.7887 72.4087 75.0915 72.8444Z" fill="#5C5C5C" fill-opacity="0.78"/>
<path d="M91.838 92.9044V43.2061C91.838 37.7572 87.4049 33.3242 81.9561 33.3242H10.5117C5.06282 33.3242 0.629761 37.7572 0.629761 43.2061V92.9044C0.629761 98.3533 5.06282 102.786 10.5117 102.786H81.9564C87.4049 102.786 91.838 98.3533 91.838 92.9044ZM5.28765 92.9044V43.2061C5.28765 40.3257 7.63104 37.9824 10.5114 37.9824H81.9561C84.8364 37.9824 87.1798 40.3257 87.1798 43.2061V92.9044C87.1798 95.7848 84.8364 98.1281 81.9561 98.1281H10.5117C7.63104 98.1281 5.28765 95.7848 5.28765 92.9044Z" fill="#5C5C5C" fill-opacity="0.78"/>
<path d="M125.792 114.298C119.107 114.298 113.668 119.737 113.668 126.422C113.668 126.595 113.672 126.767 113.679 126.939C113.672 127.013 113.668 127.089 113.668 127.166C113.668 127.365 113.693 127.557 113.739 127.741C114.399 133.808 119.552 138.546 125.792 138.546C132.477 138.546 137.916 133.107 137.916 126.422C137.916 119.736 132.477 114.298 125.792 114.298ZM125.792 118.956C129.365 118.956 132.36 121.479 133.089 124.837H118.496C119.224 121.479 122.219 118.956 125.792 118.956ZM125.792 133.888C122.77 133.888 120.162 132.083 118.988 129.495H132.595C131.422 132.083 128.814 133.888 125.792 133.888Z" fill="#5C5C5C" fill-opacity="0.78"/>
<path d="M151.874 118.325H150.646C150.221 117.043 149.695 115.791 149.078 114.587L149.96 113.705C151.186 112.48 151.861 110.848 151.861 109.111C151.861 107.375 151.186 105.743 149.96 104.517L147.697 102.254C146.469 101.027 144.838 100.351 143.103 100.351C141.765 100.351 140.489 100.753 139.412 101.499V9.9257C139.412 4.45262 134.959 0 129.486 0H49.5321C44.0591 0 39.6064 4.45262 39.6064 9.9257V26.3369C39.6064 27.6235 40.6489 28.666 41.9355 28.666C43.2221 28.666 44.2646 27.6235 44.2646 26.3369V20.738H134.753V101.871C134.467 101.765 134.179 101.664 133.89 101.568V100.34C133.89 96.7577 130.975 93.8432 127.393 93.8432H124.191C120.609 93.8432 117.694 96.7577 117.694 100.34V101.435C116.365 101.851 115.066 102.374 113.818 102.996L113.076 102.253C111.849 101.026 110.217 100.35 108.481 100.35C106.746 100.35 105.115 101.026 103.888 102.253L101.624 104.516C100.397 105.743 99.7209 107.375 99.7209 109.111C99.7209 110.847 100.397 112.478 101.624 113.705L102.233 114.314C101.553 115.601 100.98 116.945 100.522 118.324H99.7103C96.1282 118.324 93.2137 121.238 93.2137 124.821V124.836H44.2646V109.773C44.2646 108.487 43.2221 107.444 41.9355 107.444C40.6489 107.444 39.6064 108.487 39.6064 109.773V135.407C39.6064 140.88 44.0591 145.333 49.5321 145.333H99.9187C100.202 146.455 100.784 147.485 101.624 148.325L103.888 150.59C105.115 151.817 106.747 152.492 108.481 152.492C110.217 152.492 111.848 151.817 113.075 150.59L113.541 150.123C114.875 150.807 116.266 151.377 117.694 151.824V152.503C117.694 156.086 120.609 159 124.191 159H127.393C130.975 159 133.89 156.086 133.89 152.503V151.691C135.269 151.234 136.614 150.661 137.9 149.98L138.509 150.59C139.736 151.817 141.367 152.493 143.103 152.493C144.837 152.493 146.469 151.817 147.697 150.59L149.961 148.326C151.188 147.099 151.863 145.467 151.863 143.732C151.863 141.998 151.188 140.366 149.961 139.138L149.217 138.395C149.839 137.148 150.362 135.849 150.779 134.519H151.874C155.456 134.519 158.37 131.605 158.37 128.023V124.821C158.37 121.239 155.456 118.325 151.874 118.325ZM44.2646 16.0798V9.9257C44.2646 7.02115 46.6276 4.6582 49.5321 4.6582H129.486C132.39 4.6582 134.753 7.02115 134.753 9.9257V16.0798H44.2646V16.0798ZM44.2646 135.407V129.495H93.382C94.0509 132.37 96.6343 134.519 99.7103 134.519H100.389C100.836 135.948 101.407 137.339 102.091 138.672L101.624 139.138C101.164 139.599 100.781 140.116 100.482 140.675H49.5321C46.6276 140.675 44.2646 138.312 44.2646 135.407ZM153.712 128.023C153.712 129.037 152.888 129.861 151.874 129.861H150.124C148.443 129.861 146.95 130.982 146.495 132.587C146.079 134.046 145.508 135.466 144.795 136.808C144.029 138.252 144.306 140.073 145.47 141.236L146.666 142.432C147.019 142.785 147.205 143.234 147.205 143.733C147.205 144.231 147.018 144.68 146.666 145.033L144.403 147.296C144.05 147.649 143.601 147.835 143.102 147.835C142.604 147.835 142.155 147.649 141.802 147.297L140.728 146.221C140.012 145.506 139.062 145.113 138.052 145.113C137.411 145.113 136.777 145.278 136.218 145.592C134.85 146.362 133.396 146.983 131.898 147.437C130.328 147.913 129.231 149.404 129.231 151.063V152.504C129.231 153.518 128.407 154.342 127.393 154.342H124.191C123.177 154.342 122.352 153.518 122.352 152.504V151.176C122.352 149.49 121.233 147.996 119.631 147.542C118.084 147.103 116.583 146.489 115.169 145.715C114.623 145.418 114.007 145.26 113.384 145.26C112.389 145.26 111.412 145.665 110.706 146.372L109.781 147.297C109.429 147.649 108.979 147.835 108.481 147.835C107.983 147.835 107.533 147.649 107.181 147.297L104.917 145.033C104.564 144.68 104.378 144.231 104.378 143.733C104.378 143.653 104.383 143.575 104.393 143.497C104.406 143.437 104.416 143.377 104.424 143.315C104.5 142.984 104.666 142.684 104.917 142.433L105.842 141.508C107.02 140.329 107.29 138.494 106.498 137.044C105.725 135.631 105.11 134.13 104.671 132.584C104.217 130.981 102.723 129.862 101.038 129.862H99.7094C98.6954 129.862 97.871 129.037 97.871 128.023V124.822C97.871 123.808 98.6954 122.983 99.7094 122.983H101.15C102.81 122.983 104.301 121.887 104.777 120.316C105.231 118.818 105.851 117.364 106.621 115.996C107.443 114.534 107.184 112.68 105.991 111.485L104.917 110.411C104.565 110.059 104.379 109.61 104.379 109.112C104.379 108.613 104.565 108.164 104.917 107.812L107.181 105.548C107.534 105.195 107.983 105.009 108.481 105.009C108.979 105.009 109.429 105.196 109.781 105.548L110.978 106.744C111.683 107.45 112.659 107.854 113.654 107.854C114.272 107.854 114.862 107.707 115.406 107.418C116.746 106.707 118.167 106.135 119.626 105.72C121.232 105.264 122.353 103.771 122.353 102.09V100.341C122.353 99.3269 123.177 98.5021 124.191 98.5021H127.393C128.407 98.5021 129.232 99.3269 129.232 100.341V102.211C129.232 103.862 130.327 105.347 131.894 105.822C133.285 106.244 134.639 106.809 135.918 107.501C135.957 107.524 135.996 107.545 136.037 107.565C136.575 107.849 137.179 107.998 137.786 107.998C138.796 107.998 139.745 107.605 140.461 106.89L141.803 105.548C142.155 105.196 142.604 105.01 143.103 105.01C143.601 105.01 144.05 105.196 144.403 105.549L146.667 107.812C147.013 108.158 147.203 108.62 147.203 109.112C147.203 109.605 147.013 110.066 146.667 110.412L145.325 111.754C144.147 112.933 143.881 114.773 144.676 116.228C145.386 117.529 145.963 118.905 146.392 120.32C146.867 121.889 148.352 122.984 150.003 122.984H151.874C152.888 122.984 153.712 123.808 153.712 124.822V128.023V128.023Z" fill="#5C5C5C" fill-opacity="0.78"/>
</svg>
